STARTFONT 2.1
FONT -FontForge-Arial Narrow-Bold-R-Normal--17-120-100-100-P-89-ISO10646-1
SIZE 12 100 100
FONTBOUNDINGBOX 19 24 -2 -5
COMMENT "Generated by fontforge, http://fontforge.sourceforge.net"
COMMENT "(c) 2008 The Monotype Corporation. All Rights Reserved."
STARTPROPERTIES 40
FOUNDRY "FontForge"
FAMILY_NAME "Arial Narrow"
WEIGHT_NAME "Bold"
SLANT "R"
SETWIDTH_NAME "Normal"
ADD_STYLE_NAME ""
PIXEL_SIZE 17
POINT_SIZE 120
RESOLUTION_X 100
RESOLUTION_Y 100
SPACING "P"
AVERAGE_WIDTH 89
CHARSET_REGISTRY "ISO10646"
CHARSET_ENCODING "1"
FONTNAME_REGISTRY ""
CHARSET_COLLECTIONS "ASCII ISOLatin1Encoding ISO8859-2 ISO8859-5 ISO8859-7 ISO8859-9 ISO8859-4 ISO10646-1"
FONT_NAME "ArialNarrow-Bold"
FACE_NAME "Arial Narrow Bold"
COPYRIGHT "(c) 2008 The Monotype Corporation. All Rights Reserved."
FONT_VERSION "2.40"
FONT_ASCENT 14
FONT_DESCENT 3
UNDERLINE_POSITION -2
UNDERLINE_THICKNESS 2
X_HEIGHT 8
CAP_HEIGHT 11
RAW_ASCENT 799
RAW_DESCENT 200
NORM_SPACE 4
RELATIVE_WEIGHT 70
RELATIVE_SETWIDTH 30
SUPERSCRIPT_X 0
SUPERSCRIPT_Y 4
SUPERSCRIPT_SIZE 11
SUBSCRIPT_X 0
SUBSCRIPT_Y 1
SUBSCRIPT_SIZE 11
FIGURE_WIDTH 8
AVG_LOWERCASE_WIDTH 80
AVG_UPPERCASE_WIDTH 97
ENDPROPERTIES
CHARS 667
STARTCHAR space
ENCODING 32
SWIDTH 228 0
DWIDTH 4 0
BBX 1 1 0 0
BITMAP
00
ENDCHAR
STARTCHAR exclam
ENCODING 33
SWIDTH 272 0
DWIDTH 5 0
BBX 2 12 1 0
BITMAP
C0
C0
C0
C0
C0
C0
C0
C0
C0
00
C0
C0
ENDCHAR
STARTCHAR quotedbl
ENCODING 34
SWIDTH 389 0
DWIDTH 7 0
BBX 5 4 1 8
BITMAP
D8
D8
D8
D8
ENDCHAR
STARTCHAR numbersign
ENCODING 35
SWIDTH 456 0
DWIDTH 8 0
BBX 7 12 0 0
BITMAP
36
36
36
FE
FE
6C
6C
FE
FE
D8
D8
D8
ENDCHAR
STARTCHAR dollar
ENCODING 36
SWIDTH 456 0
DWIDTH 8 0
BBX 7 15 0 -2
BITMAP
10
38
7C
D6
D0
F0
78
3C
16
D6
F6
7C
38
10
10
ENDCHAR
STARTCHAR percent
ENCODING 37
SWIDTH 729 0
DWIDTH 12 0
BBX 10 12 1 0
BITMAP
6100
9100
9200
9200
9200
6400
0580
0A40
0A40
0A40
1240
1180
ENDCHAR
STARTCHAR ampersand
ENCODING 38
SWIDTH 591 0
DWIDTH 10 0
BBX 9 12 1 0
BITMAP
3C00
7E00
6600
7E00
3C00
3800
7D00
CD00
C700
C700
7F80
7900
ENDCHAR
STARTCHAR quotesingle
ENCODING 39
SWIDTH 194 0
DWIDTH 3 0
BBX 2 4 0 8
BITMAP
C0
C0
C0
C0
ENDCHAR
STARTCHAR parenleft
ENCODING 40
SWIDTH 272 0
DWIDTH 5 0
BBX 4 15 1 -3
BITMAP
10
20
60
60
C0
C0
C0
C0
C0
C0
C0
60
60
20
10
ENDCHAR
STARTCHAR parenright
ENCODING 41
SWIDTH 272 0
DWIDTH 5 0
BBX 4 15 0 -3
BITMAP
80
40
60
60
30
30
30
30
30
30
20
60
60
40
80
ENDCHAR
STARTCHAR asterisk
ENCODING 42
SWIDTH 318 0
DWIDTH 5 0
BBX 5 6 0 6
BITMAP
20
A8
F8
20
50
50
ENDCHAR
STARTCHAR plus
ENCODING 43
SWIDTH 479 0
DWIDTH 8 0
BBX 6 8 1 2
BITMAP
30
30
30
FC
FC
30
30
30
ENDCHAR
STARTCHAR comma
ENCODING 44
SWIDTH 228 0
DWIDTH 4 0
BBX 2 5 1 -3
BITMAP
C0
C0
40
40
80
ENDCHAR
STARTCHAR hyphen
ENCODING 45
SWIDTH 272 0
DWIDTH 5 0
BBX 4 2 0 3
BITMAP
F0
F0
ENDCHAR
STARTCHAR period
ENCODING 46
SWIDTH 228 0
DWIDTH 4 0
BBX 2 2 1 0
BITMAP
C0
C0
ENDCHAR
STARTCHAR slash
ENCODING 47
SWIDTH 228 0
DWIDTH 4 0
BBX 4 12 0 0
BITMAP
30
30
30
60
60
60
60
60
60
C0
C0
C0
ENDCHAR
STARTCHAR zero
ENCODING 48
SWIDTH 456 0
DWIDTH 8 0
BBX 7 12 0 0
BITMAP
38
7C
EE
C6
C6
C6
C6
C6
C6
EE
7C
38
ENDCHAR
STARTCHAR one
ENCODING 49
SWIDTH 456 0
DWIDTH 8 0
BBX 4 12 1 0
BITMAP
30
30
70
F0
B0
30
30
30
30
30
30
30
ENDCHAR
STARTCHAR two
ENCODING 50
SWIDTH 456 0
DWIDTH 8 0
BBX 7 12 0 0
BITMAP
38
7C
C6
C6
06
0C
1C
38
30
60
FE
FE
ENDCHAR
STARTCHAR three
ENCODING 51
SWIDTH 456 0
DWIDTH 8 0
BBX 7 12 0 0
BITMAP
38
7C
C6
06
06
1C
1C
06
06
C6
7C
38
ENDCHAR
STARTCHAR four
ENCODING 52
SWIDTH 456 0
DWIDTH 8 0
BBX 7 12 0 0
BITMAP
0C
1C
1C
3C
3C
6C
6C
CC
FE
FE
0C
0C
ENDCHAR
STARTCHAR five
ENCODING 53
SWIDTH 456 0
DWIDTH 8 0
BBX 7 12 0 0
BITMAP
7E
7E
60
40
F8
FC
C6
06
C6
E6
7C
38
ENDCHAR
STARTCHAR six
ENCODING 54
SWIDTH 456 0
DWIDTH 8 0
BBX 6 12 0 0
BITMAP
38
7C
CC
C0
F8
F8
CC
CC
CC
CC
78
38
ENDCHAR
STARTCHAR seven
ENCODING 55
SWIDTH 456 0
DWIDTH 8 0
BBX 6 12 1 0
BITMAP
FC
FC
08
18
18
30
30
30
60
60
60
60
ENDCHAR
STARTCHAR eight
ENCODING 56
SWIDTH 456 0
DWIDTH 8 0
BBX 7 12 0 0
BITMAP
38
7C
C6
C6
C6
7C
7C
C6
C6
C6
FE
38
ENDCHAR
STARTCHAR nine
ENCODING 57
SWIDTH 456 0
DWIDTH 8 0
BBX 6 12 1 0
BITMAP
70
78
CC
CC
CC
CC
7C
7C
0C
CC
F8
70
ENDCHAR
STARTCHAR colon
ENCODING 58
SWIDTH 272 0
DWIDTH 5 0
BBX 2 9 1 0
BITMAP
C0
C0
00
00
00
00
00
C0
C0
ENDCHAR
STARTCHAR semicolon
ENCODING 59
SWIDTH 272 0
DWIDTH 5 0
BBX 2 12 1 -3
BITMAP
C0
C0
00
00
00
00
00
C0
C0
40
40
80
ENDCHAR
STARTCHAR less
ENCODING 60
SWIDTH 479 0
DWIDTH 8 0
BBX 6 9 1 1
BITMAP
04
1C
38
F0
C0
F0
38
1C
04
ENDCHAR
STARTCHAR equal
ENCODING 61
SWIDTH 479 0
DWIDTH 8 0
BBX 6 6 1 3
BITMAP
FC
FC
00
00
FC
FC
ENDCHAR
STARTCHAR greater
ENCODING 62
SWIDTH 479 0
DWIDTH 8 0
BBX 6 9 1 1
BITMAP
80
E0
70
3C
0C
3C
70
E0
80
ENDCHAR
STARTCHAR question
ENCODING 63
SWIDTH 500 0
DWIDTH 9 0
BBX 7 12 1 0
BITMAP
38
7C
E6
C6
06
0C
1C
18
18
00
18
18
ENDCHAR
STARTCHAR at
ENCODING 64
SWIDTH 799 0
DWIDTH 14 0
BBX 14 15 0 -3
BITMAP
07C0
1FF0
3838
77D8
67CC
C4CC
CCCC
CC8C
CD9C
CDB8
EFF0
66E4
7808
3FF0
0FE0
ENDCHAR
STARTCHAR A
ENCODING 65
SWIDTH 591 0
DWIDTH 10 0
BBX 9 12 0 0
BITMAP
1C00
1C00
1C00
3600
3600
3600
6300
7F00
7F00
6300
C180
C180
ENDCHAR
STARTCHAR B
ENCODING 66
SWIDTH 591 0
DWIDTH 10 0
BBX 8 12 1 0
BITMAP
FE
FF
C3
C3
C3
FE
FE
C3
C3
C3
FF
FE
ENDCHAR
STARTCHAR C
ENCODING 67
SWIDTH 591 0
DWIDTH 10 0
BBX 9 12 1 0
BITMAP
1E00
7F00
6380
C100
C000
C000
C000
C100
C180
6380
7F00
1E00
ENDCHAR
STARTCHAR D
ENCODING 68
SWIDTH 591 0
DWIDTH 10 0
BBX 8 12 1 0
BITMAP
FC
FE
C6
C3
C3
C3
C3
C3
C3
C6
FE
FC
ENDCHAR
STARTCHAR E
ENCODING 69
SWIDTH 546 0
DWIDTH 9 0
BBX 7 12 1 0
BITMAP
FE
FE
C0
C0
C0
FE
FE
C0
C0
C0
FE
FE
ENDCHAR
STARTCHAR F
ENCODING 70
SWIDTH 500 0
DWIDTH 9 0
BBX 7 12 1 0
BITMAP
FE
FE
C0
C0
C0
FC
FC
C0
C0
C0
C0
C0
ENDCHAR
STARTCHAR G
ENCODING 71
SWIDTH 638 0
DWIDTH 11 0
BBX 9 12 1 0
BITMAP
1E00
7F00
6380
C180
C000
C000
C780
C780
C180
6180
7F80
1E00
ENDCHAR
STARTCHAR H
ENCODING 72
SWIDTH 591 0
DWIDTH 10 0
BBX 8 12 1 0
BITMAP
C3
C3
C3
C3
C3
FF
FF
C3
C3
C3
C3
C3
ENDCHAR
STARTCHAR I
ENCODING 73
SWIDTH 228 0
DWIDTH 4 0
BBX 2 12 1 0
BITMAP
C0
C0
C0
C0
C0
C0
C0
C0
C0
C0
C0
C0
ENDCHAR
STARTCHAR J
ENCODING 74
SWIDTH 456 0
DWIDTH 8 0
BBX 7 12 0 0
BITMAP
06
06
06
06
06
06
06
06
C6
C6
7C
78
ENDCHAR
STARTCHAR K
ENCODING 75
SWIDTH 591 0
DWIDTH 10 0
BBX 9 12 1 0
BITMAP
C180
C300
C600
CC00
D800
F800
EC00
C600
C600
C300
C180
C180
ENDCHAR
STARTCHAR L
ENCODING 76
SWIDTH 500 0
DWIDTH 9 0
BBX 7 12 1 0
BITMAP
C0
C0
C0
C0
C0
C0
C0
C0
C0
C0
FE
FE
ENDCHAR
STARTCHAR M
ENCODING 77
SWIDTH 683 0
DWIDTH 13 0
BBX 11 12 1 0
BITMAP
F0E0
F1E0
F1E0
F1E0
D160
DB60
DB60
DB60
CA60
CE60
CE60
CE60
ENDCHAR
STARTCHAR N
ENCODING 78
SWIDTH 591 0
DWIDTH 10 0
BBX 8 12 1 0
BITMAP
C3
E3
E3
F3
F3
DB
DB
CF
CF
C7
C7
C3
ENDCHAR
STARTCHAR O
ENCODING 79
SWIDTH 638 0
DWIDTH 11 0
BBX 9 12 1 0
BITMAP
3E00
7F00
6300
C180
C180
C180
C180
C180
C180
6300
7F00
3E00
ENDCHAR
STARTCHAR P
ENCODING 80
SWIDTH 546 0
DWIDTH 9 0
BBX 8 12 1 0
BITMAP
FE
FF
C3
C3
C3
FE
FC
C0
C0
C0
C0
C0
ENDCHAR
STARTCHAR Q
ENCODING 81
SWIDTH 638 0
DWIDTH 11 0
BBX 10 13 1 -1
BITMAP
3E00
7F00
6300
C180
C180
C180
C180
C180
CD80
6700
7F00
3FC0
0080
ENDCHAR
STARTCHAR R
ENCODING 82
SWIDTH 591 0
DWIDTH 10 0
BBX 9 12 1 0
BITMAP
FE00
FF00
C300
C300
C300
FF00
FC00
CE00
C600
C300
C300
C180
ENDCHAR
STARTCHAR S
ENCODING 83
SWIDTH 546 0
DWIDTH 9 0
BBX 7 12 1 0
BITMAP
7C
FE
C6
C6
C0
78
3C
06
C6
C6
FE
7C
ENDCHAR
STARTCHAR T
ENCODING 84
SWIDTH 500 0
DWIDTH 9 0
BBX 8 12 0 0
BITMAP
FF
FF
18
18
18
18
18
18
18
18
18
18
ENDCHAR
STARTCHAR U
ENCODING 85
SWIDTH 591 0
DWIDTH 10 0
BBX 8 12 1 0
BITMAP
C3
C3
C3
C3
C3
C3
C3
C3
C3
E7
7E
3C
ENDCHAR
STARTCHAR V
ENCODING 86
SWIDTH 546 0
DWIDTH 9 0
BBX 9 12 0 0
BITMAP
C180
C180
6300
6300
6300
3600
3600
3600
3600
1C00
1C00
1C00
ENDCHAR
STARTCHAR W
ENCODING 87
SWIDTH 773 0
DWIDTH 13 0
BBX 13 12 0 0
BITMAP
C718
C718
C718
6530
6DB0
6DB0
6DB0
6DB0
28A0
38E0
38E0
38E0
ENDCHAR
STARTCHAR X
ENCODING 88
SWIDTH 546 0
DWIDTH 9 0
BBX 9 12 0 0
BITMAP
C180
6300
6300
3600
1C00
1C00
1C00
1C00
3600
6300
6300
C180
ENDCHAR
STARTCHAR Y
ENCODING 89
SWIDTH 546 0
DWIDTH 8 0
BBX 8 12 0 0
BITMAP
C3
66
66
3C
3C
3C
18
18
18
18
18
18
ENDCHAR
STARTCHAR Z
ENCODING 90
SWIDTH 500 0
DWIDTH 9 0
BBX 8 12 0 0
BITMAP
FF
FF
07
06
0C
18
38
30
60
C0
FF
FF
ENDCHAR
STARTCHAR bracketleft
ENCODING 91
SWIDTH 272 0
DWIDTH 5 0
BBX 3 15 2 -3
BITMAP
E0
E0
C0
C0
C0
C0
C0
C0
C0
C0
C0
C0
C0
E0
E0
ENDCHAR
STARTCHAR backslash
ENCODING 92
SWIDTH 228 0
DWIDTH 4 0
BBX 4 12 0 0
BITMAP
C0
C0
C0
60
60
60
60
60
60
30
30
30
ENDCHAR
STARTCHAR bracketright
ENCODING 93
SWIDTH 272 0
DWIDTH 5 0
BBX 3 15 0 -3
BITMAP
E0
E0
60
60
60
60
60
60
60
60
60
60
60
E0
E0
ENDCHAR
STARTCHAR asciicircum
ENCODING 94
SWIDTH 479 0
DWIDTH 8 0
BBX 7 7 1 5
BITMAP
38
38
6C
6C
6C
C6
C6
ENDCHAR
STARTCHAR underscore
ENCODING 95
SWIDTH 456 0
DWIDTH 8 0
BBX 8 1 0 -2
BITMAP
FF
ENDCHAR
STARTCHAR grave
ENCODING 96
SWIDTH 272 0
DWIDTH 5 0
BBX 3 2 1 10
BITMAP
C0
60
ENDCHAR
STARTCHAR a
ENCODING 97
SWIDTH 456 0
DWIDTH 8 0
BBX 6 9 1 0
BITMAP
78
FC
CC
1C
7C
CC
CC
FC
6C
ENDCHAR
STARTCHAR b
ENCODING 98
SWIDTH 500 0
DWIDTH 9 0
BBX 7 12 1 0
BITMAP
C0
C0
C0
D8
FC
E6
C6
C6
C6
E6
FC
DC
ENDCHAR
STARTCHAR c
ENCODING 99
SWIDTH 456 0
DWIDTH 8 0
BBX 6 9 1 0
BITMAP
38
7C
CC
C0
C0
C0
CC
7C
38
ENDCHAR
STARTCHAR d
ENCODING 100
SWIDTH 500 0
DWIDTH 9 0
BBX 7 12 1 0
BITMAP
06
06
06
36
7E
E6
C6
C6
C6
CE
7E
36
ENDCHAR
STARTCHAR e
ENCODING 101
SWIDTH 456 0
DWIDTH 8 0
BBX 6 9 1 0
BITMAP
78
FC
CC
FC
FC
C0
CC
FC
78
ENDCHAR
STARTCHAR f
ENCODING 102
SWIDTH 272 0
DWIDTH 5 0
BBX 4 12 1 0
BITMAP
30
70
60
F0
F0
60
60
60
60
60
60
60
ENDCHAR
STARTCHAR g
ENCODING 103
SWIDTH 500 0
DWIDTH 9 0
BBX 7 12 1 -3
BITMAP
36
7E
EE
C6
C6
C6
EE
7E
36
C6
FE
7C
ENDCHAR
STARTCHAR h
ENCODING 104
SWIDTH 500 0
DWIDTH 9 0
BBX 7 12 1 0
BITMAP
C0
C0
C0
DC
FE
E6
C6
C6
C6
C6
C6
C6
ENDCHAR
STARTCHAR i
ENCODING 105
SWIDTH 228 0
DWIDTH 4 0
BBX 2 12 1 0
BITMAP
C0
C0
00
C0
C0
C0
C0
C0
C0
C0
C0
C0
ENDCHAR
STARTCHAR j
ENCODING 106
SWIDTH 228 0
DWIDTH 4 0
BBX 4 15 -1 -3
BITMAP
30
30
00
30
30
30
30
30
30
30
30
30
30
F0
E0
ENDCHAR
STARTCHAR k
ENCODING 107
SWIDTH 456 0
DWIDTH 8 0
BBX 6 12 1 0
BITMAP
C0
C0
C0
CC
D8
D8
F0
F8
D8
CC
CC
CC
ENDCHAR
STARTCHAR l
ENCODING 108
SWIDTH 228 0
DWIDTH 4 0
BBX 2 12 1 0
BITMAP
C0
C0
C0
C0
C0
C0
C0
C0
C0
C0
C0
C0
ENDCHAR
STARTCHAR m
ENCODING 109
SWIDTH 729 0
DWIDTH 12 0
BBX 10 9 1 0
BITMAP
D980
FFC0
CCC0
CCC0
CCC0
CCC0
CCC0
CCC0
CCC0
ENDCHAR
STARTCHAR n
ENCODING 110
SWIDTH 500 0
DWIDTH 9 0
BBX 7 9 1 0
BITMAP
DC
FE
E6
C6
C6
C6
C6
C6
C6
ENDCHAR
STARTCHAR o
ENCODING 111
SWIDTH 500 0
DWIDTH 9 0
BBX 7 9 1 0
BITMAP
38
7C
EE
C6
C6
C6
EE
7C
38
ENDCHAR
STARTCHAR p
ENCODING 112
SWIDTH 500 0
DWIDTH 9 0
BBX 7 12 1 -3
BITMAP
D8
FC
EE
C6
C6
C6
E6
FC
D8
C0
C0
C0
ENDCHAR
STARTCHAR q
ENCODING 113
SWIDTH 500 0
DWIDTH 9 0
BBX 7 12 1 -3
BITMAP
76
7E
E6
C6
C6
C6
CE
7E
36
06
06
06
ENDCHAR
STARTCHAR r
ENCODING 114
SWIDTH 318 0
DWIDTH 6 0
BBX 5 9 1 0
BITMAP
F8
F8
C0
C0
C0
C0
C0
C0
C0
ENDCHAR
STARTCHAR s
ENCODING 115
SWIDTH 456 0
DWIDTH 8 0
BBX 6 9 1 0
BITMAP
78
FC
CC
E0
78
1C
CC
FC
78
ENDCHAR
STARTCHAR t
ENCODING 116
SWIDTH 272 0
DWIDTH 5 0
BBX 5 12 0 0
BITMAP
20
60
60
F8
F8
60
60
60
60
60
78
38
ENDCHAR
STARTCHAR u
ENCODING 117
SWIDTH 500 0
DWIDTH 9 0
BBX 7 9 1 0
BITMAP
C6
C6
C6
C6
C6
C6
CE
FE
76
ENDCHAR
STARTCHAR v
ENCODING 118
SWIDTH 456 0
DWIDTH 8 0
BBX 8 9 0 0
BITMAP
C3
C3
66
66
66
3C
3C
3C
18
ENDCHAR
STARTCHAR w
ENCODING 119
SWIDTH 638 0
DWIDTH 11 0
BBX 11 9 0 0
BITMAP
CE60
CE60
6EC0
6AC0
6AC0
2A80
3B80
3B80
3B80
ENDCHAR
STARTCHAR x
ENCODING 120
SWIDTH 456 0
DWIDTH 8 0
BBX 8 9 0 0
BITMAP
C3
66
3C
3C
18
3C
3C
66
C3
ENDCHAR
STARTCHAR y
ENCODING 121
SWIDTH 456 0
DWIDTH 8 0
BBX 8 12 0 -3
BITMAP
C3
C3
66
66
66
3C
3C
3C
18
18
F0
E0
ENDCHAR
STARTCHAR z
ENCODING 122
SWIDTH 410 0
DWIDTH 7 0
BBX 7 9 0 0
BITMAP
FE
FE
0C
18
30
30
60
FE
FE
ENDCHAR
STARTCHAR braceleft
ENCODING 123
SWIDTH 318 0
DWIDTH 5 0
BBX 4 15 1 -3
BITMAP
30
70
60
60
60
60
C0
C0
60
60
60
60
60
70
30
ENDCHAR
STARTCHAR bar
ENCODING 124
SWIDTH 229 0
DWIDTH 4 0
BBX 2 15 1 -3
BITMAP
C0
C0
C0
C0
C0
C0
C0
C0
C0
C0
C0
C0
C0
C0
C0
ENDCHAR
STARTCHAR braceright
ENCODING 125
SWIDTH 318 0
DWIDTH 5 0
BBX 4 15 0 -3
BITMAP
C0
E0
60
60
60
60
30
30
60
60
60
60
60
E0
C0
ENDCHAR
STARTCHAR asciitilde
ENCODING 126
SWIDTH 479 0
DWIDTH 8 0
BBX 6 3 1 5
BITMAP
E4
FC
9C
ENDCHAR
STARTCHAR nbspace
ENCODING 160
SWIDTH 456 0
DWIDTH 8 0
BBX 1 1 0 0
BITMAP
00
ENDCHAR
STARTCHAR exclamdown
ENCODING 161
SWIDTH 272 0
DWIDTH 5 0
BBX 2 12 1 -3
BITMAP
C0
C0
00
C0
C0
C0
C0
C0
C0
C0
C0
C0
ENDCHAR
STARTCHAR cent
ENCODING 162
SWIDTH 456 0
DWIDTH 8 0
BBX 7 15 1 -3
BITMAP
04
04
08
38
7C
CE
D0
D0
D6
E6
7C
78
20
40
40
ENDCHAR
STARTCHAR sterling
ENCODING 163
SWIDTH 456 0
DWIDTH 8 0
BBX 8 12 0 0
BITMAP
1C
7E
67
63
60
FC
FC
30
20
79
FF
8E
ENDCHAR
STARTCHAR currency
ENCODING 164
SWIDTH 456 0
DWIDTH 8 0
BBX 8 10 0 1
BITMAP
42
FF
7E
66
66
66
66
7E
FF
42
ENDCHAR
STARTCHAR yen
ENCODING 165
SWIDTH 456 0
DWIDTH 8 0
BBX 8 12 0 0
BITMAP
C3
66
66
3C
3C
FF
FF
18
FF
FF
18
18
ENDCHAR
STARTCHAR brokenbar
ENCODING 166
SWIDTH 229 0
DWIDTH 4 0
BBX 2 15 1 -3
BITMAP
C0
C0
C0
C0
C0
C0
C0
00
C0
C0
C0
C0
C0
C0
C0
ENDCHAR
STARTCHAR section
ENCODING 167
SWIDTH 456 0
DWIDTH 8 0
BBX 6 15 1 -3
BITMAP
78
FC
CC
C0
70
F8
CC
CC
CC
7C
38
0C
CC
FC
78
ENDCHAR
STARTCHAR dieresis
ENCODING 168
SWIDTH 272 0
DWIDTH 5 0
BBX 5 2 0 10
BITMAP
D8
D8
ENDCHAR
STARTCHAR copyright
ENCODING 169
SWIDTH 604 0
DWIDTH 10 0
BBX 10 12 0 0
BITMAP
1E00
2100
4080
CCC0
9240
9040
9040
9240
CCC0
4080
2100
1E00
ENDCHAR
STARTCHAR ordfeminine
ENCODING 170
SWIDTH 303 0
DWIDTH 5 0
BBX 4 6 0 6
BITMAP
E0
10
70
90
90
F0
ENDCHAR
STARTCHAR guillemotleft
ENCODING 171
SWIDTH 456 0
DWIDTH 8 0
BBX 7 7 1 1
BITMAP
36
6C
6C
D8
6C
6C
36
ENDCHAR
STARTCHAR logicalnot
ENCODING 172
SWIDTH 479 0
DWIDTH 8 0
BBX 6 6 1 3
BITMAP
FC
FC
0C
0C
0C
0C
ENDCHAR
STARTCHAR hyphen.dup1
ENCODING 173
SWIDTH 272 0
DWIDTH 5 0
BBX 4 2 0 3
BITMAP
F0
F0
ENDCHAR
STARTCHAR registered
ENCODING 174
SWIDTH 604 0
DWIDTH 10 0
BBX 10 12 0 0
BITMAP
1E00
2100
4080
DEC0
9240
9E40
9440
9640
D2C0
4080
2100
1E00
ENDCHAR
STARTCHAR overscore
ENCODING 175
SWIDTH 500 0
DWIDTH 9 0
BBX 9 1 0 13
BITMAP
FF80
ENDCHAR
STARTCHAR degree
ENCODING 176
SWIDTH 399 0
DWIDTH 7 0
BBX 5 5 1 7
BITMAP
70
88
88
88
70
ENDCHAR
STARTCHAR plusminus
ENCODING 177
SWIDTH 548 0
DWIDTH 9 0
BBX 8 11 0 0
BITMAP
18
18
18
FF
FF
18
18
18
00
FF
FF
ENDCHAR
STARTCHAR twosuperior
ENCODING 178
SWIDTH 272 0
DWIDTH 5 0
BBX 4 6 0 6
BITMAP
60
90
10
20
40
F0
ENDCHAR
STARTCHAR threesuperior
ENCODING 179
SWIDTH 272 0
DWIDTH 5 0
BBX 4 6 0 6
BITMAP
60
90
20
10
90
60
ENDCHAR
STARTCHAR acute
ENCODING 180
SWIDTH 272 0
DWIDTH 5 0
BBX 3 2 1 10
BITMAP
60
C0
ENDCHAR
STARTCHAR mu1
ENCODING 181
SWIDTH 576 0
DWIDTH 10 0
BBX 8 12 1 -3
BITMAP
C3
C3
C3
C3
C3
C3
E7
FF
DB
C0
C0
C0
ENDCHAR
STARTCHAR paragraph
ENCODING 182
SWIDTH 456 0
DWIDTH 8 0
BBX 8 15 0 -3
BITMAP
7F
FF
F6
F6
F6
F6
76
36
36
36
36
36
36
36
36
ENDCHAR
STARTCHAR middot
ENCODING 183
SWIDTH 272 0
DWIDTH 5 0
BBX 2 2 1 5
BITMAP
C0
C0
ENDCHAR
STARTCHAR cedilla
ENCODING 184
SWIDTH 272 0
DWIDTH 5 0
BBX 4 4 0 -4
BITMAP
70
10
10
E0
ENDCHAR
STARTCHAR onesuperior
ENCODING 185
SWIDTH 272 0
DWIDTH 5 0
BBX 2 6 1 6
BITMAP
40
C0
40
40
40
40
ENDCHAR
STARTCHAR ordmasculine
ENCODING 186
SWIDTH 298 0
DWIDTH 5 0
BBX 5 6 0 6
BITMAP
70
88
88
88
88
70
ENDCHAR
STARTCHAR guillemotright
ENCODING 187
SWIDTH 456 0
DWIDTH 8 0
BBX 7 7 1 1
BITMAP
D8
6C
6C
36
6C
6C
D8
ENDCHAR
STARTCHAR onequarter
ENCODING 188
SWIDTH 684 0
DWIDTH 12 0
BBX 11 12 1 0
BITMAP
4100
C200
4200
4200
4400
4400
0840
08C0
11C0
1340
13E0
2040
ENDCHAR
STARTCHAR onehalf
ENCODING 189
SWIDTH 684 0
DWIDTH 12 0
BBX 10 12 1 0
BITMAP
4100
C200
4200
4200
4400
4400
0980
0A40
1040
1080
1100
23C0
ENDCHAR
STARTCHAR threequarters
ENCODING 190
SWIDTH 684 0
DWIDTH 12 0
BBX 12 12 0 0
BITMAP
6080
9100
2100
1100
9200
6200
0420
0460
08E0
09A0
09F0
1020
ENDCHAR
STARTCHAR questiondown
ENCODING 191
SWIDTH 500 0
DWIDTH 9 0
BBX 7 12 1 -3
BITMAP
30
30
00
30
30
70
60
C0
C6
CE
7C
38
ENDCHAR
STARTCHAR Agrave
ENCODING 192
SWIDTH 591 0
DWIDTH 10 0
BBX 9 15 0 0
BITMAP
1800
0C00
0000
1C00
1C00
1C00
3600
3600
3600
6300
7F00
7F00
6300
C180
C180
ENDCHAR
STARTCHAR Aacute
ENCODING 193
SWIDTH 591 0
DWIDTH 10 0
BBX 9 15 0 0
BITMAP
0C00
1800
0000
1C00
1C00
1C00
3600
3600
3600
6300
7F00
7F00
6300
C180
C180
ENDCHAR
STARTCHAR Acircumflex
ENCODING 194
SWIDTH 591 0
DWIDTH 10 0
BBX 9 15 0 0
BITMAP
1C00
3600
0000
1C00
1C00
1C00
3600
3600
3600
6300
7F00
7F00
6300
C180
C180
ENDCHAR
STARTCHAR Atilde
ENCODING 195
SWIDTH 591 0
DWIDTH 10 0
BBX 9 15 0 0
BITMAP
3A00
2E00
0000
1C00
1C00
1C00
3600
3600
3600
6300
7F00
7F00
6300
C180
C180
ENDCHAR
STARTCHAR Adieresis
ENCODING 196
SWIDTH 591 0
DWIDTH 10 0
BBX 9 15 0 0
BITMAP
3600
3600
0000
1C00
1C00
1C00
3600
3600
3600
6300
7F00
7F00
6300
C180
C180
ENDCHAR
STARTCHAR Aring
ENCODING 197
SWIDTH 591 0
DWIDTH 10 0
BBX 9 16 0 0
BITMAP
1C00
1400
1C00
0000
1C00
1C00
1C00
3600
3600
3600
6300
7F00
7F00
6300
C180
C180
ENDCHAR
STARTCHAR AE
ENCODING 198
SWIDTH 819 0
DWIDTH 14 0
BBX 13 12 0 0
BITMAP
07F8
0FF8
0D80
1980
1980
19F8
31F8
3F80
7F80
6180
61F8
C1F8
ENDCHAR
STARTCHAR Ccedilla
ENCODING 199
SWIDTH 591 0
DWIDTH 10 0
BBX 9 16 1 -4
BITMAP
1E00
7F00
6380
C100
C000
C000
C000
C100
C180
6380
7F00
1E00
1C00
0400
0400
3800
ENDCHAR
STARTCHAR Egrave
ENCODING 200
SWIDTH 546 0
DWIDTH 9 0
BBX 7 15 1 0
BITMAP
18
0C
00
FE
FE
C0
C0
C0
FE
FE
C0
C0
C0
FE
FE
ENDCHAR
STARTCHAR Eacute
ENCODING 201
SWIDTH 546 0
DWIDTH 9 0
BBX 7 15 1 0
BITMAP
30
60
00
FE
FE
C0
C0
C0
FE
FE
C0
C0
C0
FE
FE
ENDCHAR
STARTCHAR Ecircumflex
ENCODING 202
SWIDTH 546 0
DWIDTH 9 0
BBX 7 15 1 0
BITMAP
38
6C
00
FE
FE
C0
C0
C0
FE
FE
C0
C0
C0
FE
FE
ENDCHAR
STARTCHAR Edieresis
ENCODING 203
SWIDTH 546 0
DWIDTH 9 0
BBX 7 15 1 0
BITMAP
6C
6C
00
FE
FE
C0
C0
C0
FE
FE
C0
C0
C0
FE
FE
ENDCHAR
STARTCHAR Igrave
ENCODING 204
SWIDTH 228 0
DWIDTH 4 0
BBX 3 15 0 0
BITMAP
C0
60
00
60
60
60
60
60
60
60
60
60
60
60
60
ENDCHAR
STARTCHAR Iacute
ENCODING 205
SWIDTH 228 0
DWIDTH 4 0
BBX 3 15 0 0
BITMAP
60
C0
00
60
60
60
60
60
60
60
60
60
60
60
60
ENDCHAR
STARTCHAR Icircumflex
ENCODING 206
SWIDTH 228 0
DWIDTH 4 0
BBX 5 15 -1 0
BITMAP
70
D8
00
30
30
30
30
30
30
30
30
30
30
30
30
ENDCHAR
STARTCHAR Idieresis
ENCODING 207
SWIDTH 228 0
DWIDTH 4 0
BBX 5 15 -1 0
BITMAP
D8
D8
00
30
30
30
30
30
30
30
30
30
30
30
30
ENDCHAR
STARTCHAR Eth
ENCODING 208
SWIDTH 591 0
DWIDTH 10 0
BBX 9 12 0 0
BITMAP
7E00
7F00
6300
6180
6180
F980
F980
6180
6180
6300
7F00
7E00
ENDCHAR
STARTCHAR Ntilde
ENCODING 209
SWIDTH 591 0
DWIDTH 10 0
BBX 8 15 1 0
BITMAP
74
5C
00
C3
E3
E3
F3
F3
DB
DB
CF
CF
C7
C7
C3
ENDCHAR
STARTCHAR Ograve
ENCODING 210
SWIDTH 638 0
DWIDTH 11 0
BBX 9 15 1 0
BITMAP
0C00
0600
0000
3E00
7F00
6300
C180
C180
C180
C180
C180
C180
6300
7F00
3E00
ENDCHAR
STARTCHAR Oacute
ENCODING 211
SWIDTH 638 0
DWIDTH 11 0
BBX 9 15 1 0
BITMAP
1800
3000
0000
3E00
7F00
6300
C180
C180
C180
C180
C180
C180
6300
7F00
3E00
ENDCHAR
STARTCHAR Ocircumflex
ENCODING 212
SWIDTH 638 0
DWIDTH 11 0
BBX 9 15 1 0
BITMAP
1C00
3600
0000
3E00
7F00
6300
C180
C180
C180
C180
C180
C180
6300
7F00
3E00
ENDCHAR
STARTCHAR Otilde
ENCODING 213
SWIDTH 638 0
DWIDTH 11 0
BBX 9 15 1 0
BITMAP
3A00
2E00
0000
3E00
7F00
6300
C180
C180
C180
C180
C180
C180
6300
7F00
3E00
ENDCHAR
STARTCHAR Odieresis
ENCODING 214
SWIDTH 638 0
DWIDTH 11 0
BBX 9 15 1 0
BITMAP
3600
3600
0000
3E00
7F00
6300
C180
C180
C180
C180
C180
C180
6300
7F00
3E00
ENDCHAR
STARTCHAR multiply
ENCODING 215
SWIDTH 479 0
DWIDTH 8 0
BBX 6 6 1 3
BITMAP
CC
FC
78
78
FC
CC
ENDCHAR
STARTCHAR Oslash
ENCODING 216
SWIDTH 638 0
DWIDTH 11 0
BBX 9 12 1 0
BITMAP
3C80
7F80
6300
C780
C580
CD80
D980
D180
F180
6300
FF00
BE00
ENDCHAR
STARTCHAR Ugrave
ENCODING 217
SWIDTH 591 0
DWIDTH 10 0
BBX 8 15 1 0
BITMAP
18
0C
00
C3
C3
C3
C3
C3
C3
C3
C3
C3
E7
7E
3C
ENDCHAR
STARTCHAR Uacute
ENCODING 218
SWIDTH 591 0
DWIDTH 10 0
BBX 8 15 1 0
BITMAP
18
30
00
C3
C3
C3
C3
C3
C3
C3
C3
C3
E7
7E
3C
ENDCHAR
STARTCHAR Ucircumflex
ENCODING 219
SWIDTH 591 0
DWIDTH 10 0
BBX 8 15 1 0
BITMAP
38
6C
00
C3
C3
C3
C3
C3
C3
C3
C3
C3
E7
7E
3C
ENDCHAR
STARTCHAR Udieresis
ENCODING 220
SWIDTH 591 0
DWIDTH 10 0
BBX 8 15 1 0
BITMAP
6C
6C
00
C3
C3
C3
C3
C3
C3
C3
C3
C3
E7
7E
3C
ENDCHAR
STARTCHAR Yacute
ENCODING 221
SWIDTH 546 0
DWIDTH 8 0
BBX 8 15 0 0
BITMAP
18
30
00
C3
66
66
3C
3C
3C
18
18
18
18
18
18
ENDCHAR
STARTCHAR Thorn
ENCODING 222
SWIDTH 546 0
DWIDTH 9 0
BBX 8 12 1 0
BITMAP
C0
C0
FC
FE
C3
C3
C3
C7
FE
FE
C0
C0
ENDCHAR
STARTCHAR germandbls
ENCODING 223
SWIDTH 500 0
DWIDTH 9 0
BBX 8 12 1 0
BITMAP
3C
7E
E6
C6
CC
CC
CE
C6
C3
CB
CF
C6
ENDCHAR
STARTCHAR agrave
ENCODING 224
SWIDTH 456 0
DWIDTH 8 0
BBX 6 12 1 0
BITMAP
30
18
00
78
FC
CC
1C
7C
CC
CC
FC
6C
ENDCHAR
STARTCHAR aacute
ENCODING 225
SWIDTH 456 0
DWIDTH 8 0
BBX 6 12 1 0
BITMAP
30
60
00
78
FC
CC
1C
7C
CC
CC
FC
6C
ENDCHAR
STARTCHAR acircumflex
ENCODING 226
SWIDTH 456 0
DWIDTH 8 0
BBX 6 12 1 0
BITMAP
70
D8
00
78
FC
CC
1C
7C
CC
CC
FC
6C
ENDCHAR
STARTCHAR atilde
ENCODING 227
SWIDTH 456 0
DWIDTH 8 0
BBX 6 12 1 0
BITMAP
E8
B8
00
78
FC
CC
1C
7C
CC
CC
FC
6C
ENDCHAR
STARTCHAR adieresis
ENCODING 228
SWIDTH 456 0
DWIDTH 8 0
BBX 6 12 1 0
BITMAP
D8
D8
00
78
FC
CC
1C
7C
CC
CC
FC
6C
ENDCHAR
STARTCHAR aring
ENCODING 229
SWIDTH 456 0
DWIDTH 8 0
BBX 6 13 1 0
BITMAP
70
50
70
00
78
FC
CC
1C
7C
CC
CC
FC
6C
ENDCHAR
STARTCHAR ae
ENCODING 230
SWIDTH 729 0
DWIDTH 12 0
BBX 10 9 1 0
BITMAP
7B80
FFC0
CCC0
1FC0
7FC0
CC00
CCC0
FFC0
7380
ENDCHAR
STARTCHAR ccedilla
ENCODING 231
SWIDTH 456 0
DWIDTH 8 0
BBX 6 13 1 -4
BITMAP
38
7C
CC
C0
C0
C0
CC
7C
38
70
10
10
E0
ENDCHAR
STARTCHAR egrave
ENCODING 232
SWIDTH 456 0
DWIDTH 8 0
BBX 6 12 1 0
BITMAP
30
18
00
78
FC
CC
FC
FC
C0
CC
FC
78
ENDCHAR
STARTCHAR eacute
ENCODING 233
SWIDTH 456 0
DWIDTH 8 0
BBX 6 12 1 0
BITMAP
30
60
00
78
FC
CC
FC
FC
C0
CC
FC
78
ENDCHAR
STARTCHAR ecircumflex
ENCODING 234
SWIDTH 456 0
DWIDTH 8 0
BBX 6 12 1 0
BITMAP
70
D8
00
78
FC
CC
FC
FC
C0
CC
FC
78
ENDCHAR
STARTCHAR edieresis
ENCODING 235
SWIDTH 456 0
DWIDTH 8 0
BBX 6 12 1 0
BITMAP
D8
D8
00
78
FC
CC
FC
FC
C0
CC
FC
78
ENDCHAR
STARTCHAR igrave
ENCODING 236
SWIDTH 228 0
DWIDTH 4 0
BBX 3 12 0 0
BITMAP
C0
60
00
60
60
60
60
60
60
60
60
60
ENDCHAR
STARTCHAR iacute
ENCODING 237
SWIDTH 228 0
DWIDTH 4 0
BBX 3 12 0 0
BITMAP
60
C0
00
60
60
60
60
60
60
60
60
60
ENDCHAR
STARTCHAR icircumflex
ENCODING 238
SWIDTH 228 0
DWIDTH 4 0
BBX 5 12 -1 0
BITMAP
70
D8
00
30
30
30
30
30
30
30
30
30
ENDCHAR
STARTCHAR idieresis
ENCODING 239
SWIDTH 228 0
DWIDTH 4 0
BBX 5 12 -1 0
BITMAP
D8
D8
00
30
30
30
30
30
30
30
30
30
ENDCHAR
STARTCHAR eth
ENCODING 240
SWIDTH 500 0
DWIDTH 9 0
BBX 7 12 1 0
BITMAP
34
18
28
3C
7C
EE
C6
C6
C6
EE
7C
38
ENDCHAR
STARTCHAR ntilde
ENCODING 241
SWIDTH 500 0
DWIDTH 9 0
BBX 7 12 1 0
BITMAP
74
5C
00
DC
FE
E6
C6
C6
C6
C6
C6
C6
ENDCHAR
STARTCHAR ograve
ENCODING 242
SWIDTH 500 0
DWIDTH 9 0
BBX 7 12 1 0
BITMAP
18
0C
00
38
7C
EE
C6
C6
C6
EE
7C
38
ENDCHAR
STARTCHAR oacute
ENCODING 243
SWIDTH 500 0
DWIDTH 9 0
BBX 7 12 1 0
BITMAP
30
60
00
38
7C
EE
C6
C6
C6
EE
7C
38
ENDCHAR
STARTCHAR ocircumflex
ENCODING 244
SWIDTH 500 0
DWIDTH 9 0
BBX 7 12 1 0
BITMAP
38
6C
00
38
7C
EE
C6
C6
C6
EE
7C
38
ENDCHAR
STARTCHAR otilde
ENCODING 245
SWIDTH 500 0
DWIDTH 9 0
BBX 7 12 1 0
BITMAP
74
5C
00
38
7C
EE
C6
C6
C6
EE
7C
38
ENDCHAR
STARTCHAR odieresis
ENCODING 246
SWIDTH 500 0
DWIDTH 9 0
BBX 7 12 1 0
BITMAP
6C
6C
00
38
7C
EE
C6
C6
C6
EE
7C
38
ENDCHAR
STARTCHAR divide
ENCODING 247
SWIDTH 548 0
DWIDTH 9 0
BBX 8 8 0 2
BITMAP
18
18
00
FF
FF
00
18
18
ENDCHAR
STARTCHAR oslash
ENCODING 248
SWIDTH 500 0
DWIDTH 9 0
BBX 7 9 1 0
BITMAP
3A
7C
EE
CE
D6
E6
EE
7C
B8
ENDCHAR
STARTCHAR ugrave
ENCODING 249
SWIDTH 500 0
DWIDTH 9 0
BBX 7 12 1 0
BITMAP
18
0C
00
C6
C6
C6
C6
C6
C6
CE
FE
76
ENDCHAR
STARTCHAR uacute
ENCODING 250
SWIDTH 500 0
DWIDTH 9 0
BBX 7 12 1 0
BITMAP
30
60
00
C6
C6
C6
C6
C6
C6
CE
FE
76
ENDCHAR
STARTCHAR ucircumflex
ENCODING 251
SWIDTH 500 0
DWIDTH 9 0
BBX 7 12 1 0
BITMAP
38
6C
00
C6
C6
C6
C6
C6
C6
CE
FE
76
ENDCHAR
STARTCHAR udieresis
ENCODING 252
SWIDTH 500 0
DWIDTH 9 0
BBX 7 12 1 0
BITMAP
6C
6C
00
C6
C6
C6
C6
C6
C6
CE
FE
76
ENDCHAR
STARTCHAR yacute
ENCODING 253
SWIDTH 456 0
DWIDTH 8 0
BBX 8 15 0 -3
BITMAP
18
30
00
C3
C3
66
66
66
3C
3C
3C
18
18
F0
E0
ENDCHAR
STARTCHAR thorn
ENCODING 254
SWIDTH 500 0
DWIDTH 9 0
BBX 7 15 1 -3
BITMAP
C0
C0
C0
DC
FC
CE
C6
C6
C6
E6
FC
D8
C0
C0
C0
ENDCHAR
STARTCHAR ydieresis
ENCODING 255
SWIDTH 456 0
DWIDTH 8 0
BBX 8 15 0 -3
BITMAP
6C
6C
00
C3
C3
66
66
66
3C
3C
3C
18
18
F0
E0
ENDCHAR
STARTCHAR Amacron
ENCODING 256
SWIDTH 591 0
DWIDTH 10 0
BBX 9 15 0 0
BITMAP
3E00
3E00
0000
1C00
1C00
1C00
3600
3600
3600
6300
7F00
7F00
6300
C180
C180
ENDCHAR
STARTCHAR amacron
ENCODING 257
SWIDTH 456 0
DWIDTH 8 0
BBX 6 12 1 0
BITMAP
F8
F8
00
78
FC
CC
1C
7C
CC
CC
FC
6C
ENDCHAR
STARTCHAR Abreve
ENCODING 258
SWIDTH 591 0
DWIDTH 10 0
BBX 9 15 0 0
BITMAP
2200
1C00
0000
1C00
1C00
1C00
3600
3600
3600
6300
7F00
7F00
6300
C180
C180
ENDCHAR
STARTCHAR abreve
ENCODING 259
SWIDTH 456 0
DWIDTH 8 0
BBX 6 12 1 0
BITMAP
88
70
00
78
FC
CC
1C
7C
CC
CC
FC
6C
ENDCHAR
STARTCHAR Aogonek
ENCODING 260
SWIDTH 591 0
DWIDTH 10 0
BBX 10 15 0 -3
BITMAP
1C00
1C00
1C00
3600
3600
3600
6300
7F00
7F00
6300
C180
C180
0100
0100
01C0
ENDCHAR
STARTCHAR aogonek
ENCODING 261
SWIDTH 456 0
DWIDTH 8 0
BBX 7 12 1 -3
BITMAP
78
FC
CC
1C
7C
CC
CC
FC
6C
08
08
0E
ENDCHAR
STARTCHAR Cacute
ENCODING 262
SWIDTH 591 0
DWIDTH 10 0
BBX 9 15 1 0
BITMAP
1800
3000
0000
1E00
7F00
6380
C100
C000
C000
C000
C100
C180
6380
7F00
1E00
ENDCHAR
STARTCHAR cacute
ENCODING 263
SWIDTH 456 0
DWIDTH 8 0
BBX 6 12 1 0
BITMAP
30
60
00
38
7C
CC
C0
C0
C0
CC
7C
38
ENDCHAR
STARTCHAR Ccircumflex
ENCODING 264
SWIDTH 591 0
DWIDTH 10 0
BBX 9 15 1 0
BITMAP
1C00
3600
0000
1E00
7F00
6380
C100
C000
C000
C000
C100
C180
6380
7F00
1E00
ENDCHAR
STARTCHAR ccircumflex
ENCODING 265
SWIDTH 456 0
DWIDTH 8 0
BBX 6 12 1 0
BITMAP
70
D8
00
38
7C
CC
C0
C0
C0
CC
7C
38
ENDCHAR
STARTCHAR Cdot
ENCODING 266
SWIDTH 591 0
DWIDTH 10 0
BBX 9 15 1 0
BITMAP
0C00
0C00
0000
1E00
7F00
6380
C100
C000
C000
C000
C100
C180
6380
7F00
1E00
ENDCHAR
STARTCHAR cdot
ENCODING 267
SWIDTH 456 0
DWIDTH 8 0
BBX 6 12 1 0
BITMAP
30
30
00
38
7C
CC
C0
C0
C0
CC
7C
38
ENDCHAR
STARTCHAR Ccaron
ENCODING 268
SWIDTH 591 0
DWIDTH 10 0
BBX 9 15 1 0
BITMAP
3600
1C00
0000
1E00
7F00
6380
C100
C000
C000
C000
C100
C180
6380
7F00
1E00
ENDCHAR
STARTCHAR ccaron
ENCODING 269
SWIDTH 456 0
DWIDTH 8 0
BBX 6 12 1 0
BITMAP
D8
70
00
38
7C
CC
C0
C0
C0
CC
7C
38
ENDCHAR
STARTCHAR Dcaron
ENCODING 270
SWIDTH 591 0
DWIDTH 10 0
BBX 8 15 1 0
BITMAP
36
1C
00
FC
FE
C6
C3
C3
C3
C3
C3
C3
C6
FE
FC
ENDCHAR
STARTCHAR dcaron
ENCODING 271
SWIDTH 588 0
DWIDTH 10 0
BBX 10 12 1 0
BITMAP
06C0
06C0
0640
3640
7E80
E600
C600
C600
C600
CE00
7E00
3600
ENDCHAR
STARTCHAR Dslash
ENCODING 272
SWIDTH 591 0
DWIDTH 10 0
BBX 9 12 0 0
BITMAP
7E00
7F00
6300
6180
6180
F980
F980
6180
6180
6300
7F00
7E00
ENDCHAR
STARTCHAR dmacron
ENCODING 273
SWIDTH 503 0
DWIDTH 9 0
BBX 8 12 1 0
BITMAP
06
1F
06
36
7E
E6
C6
C6
C6
CE
7E
76
ENDCHAR
STARTCHAR Emacron
ENCODING 274
SWIDTH 546 0
DWIDTH 9 0
BBX 7 15 1 0
BITMAP
7C
7C
00
FE
FE
C0
C0
C0
FE
FE
C0
C0
C0
FE
FE
ENDCHAR
STARTCHAR emacron
ENCODING 275
SWIDTH 456 0
DWIDTH 8 0
BBX 6 12 1 0
BITMAP
F8
F8
00
78
FC
CC
FC
FC
C0
CC
FC
78
ENDCHAR
STARTCHAR Ebreve
ENCODING 276
SWIDTH 546 0
DWIDTH 9 0
BBX 7 15 1 0
BITMAP
44
38
00
FE
FE
C0
C0
C0
FE
FE
C0
C0
C0
FE
FE
ENDCHAR
STARTCHAR ebreve
ENCODING 277
SWIDTH 456 0
DWIDTH 8 0
BBX 6 12 1 0
BITMAP
88
70
00
78
FC
CC
FC
FC
C0
CC
FC
78
ENDCHAR
STARTCHAR Edot
ENCODING 278
SWIDTH 546 0
DWIDTH 9 0
BBX 7 15 1 0
BITMAP
30
30
00
FE
FE
C0
C0
C0
FE
FE
C0
C0
C0
FE
FE
ENDCHAR
STARTCHAR edot
ENCODING 279
SWIDTH 456 0
DWIDTH 8 0
BBX 6 12 1 0
BITMAP
30
30
00
78
FC
CC
FC
FC
C0
CC
FC
78
ENDCHAR
STARTCHAR Eogonek
ENCODING 280
SWIDTH 546 0
DWIDTH 9 0
BBX 7 15 1 -3
BITMAP
FE
FE
C0
C0
C0
FE
FE
C0
C0
C0
FE
FE
10
10
1C
ENDCHAR
STARTCHAR eogonek
ENCODING 281
SWIDTH 456 0
DWIDTH 8 0
BBX 6 12 1 -3
BITMAP
78
FC
CC
FC
FC
C0
CC
FC
78
20
20
38
ENDCHAR
STARTCHAR Ecaron
ENCODING 282
SWIDTH 546 0
DWIDTH 9 0
BBX 7 15 1 0
BITMAP
6C
38
00
FE
FE
C0
C0
C0
FE
FE
C0
C0
C0
FE
FE
ENDCHAR
STARTCHAR ecaron
ENCODING 283
SWIDTH 456 0
DWIDTH 8 0
BBX 6 12 1 0
BITMAP
D8
70
00
78
FC
CC
FC
FC
C0
CC
FC
78
ENDCHAR
STARTCHAR Gcircumflex
ENCODING 284
SWIDTH 638 0
DWIDTH 11 0
BBX 9 15 1 0
BITMAP
1C00
3600
0000
1E00
7F00
6380
C180
C000
C000
C780
C780
C180
6180
7F80
1E00
ENDCHAR
STARTCHAR gcircumflex
ENCODING 285
SWIDTH 500 0
DWIDTH 9 0
BBX 7 15 1 -3
BITMAP
38
6C
00
36
7E
EE
C6
C6
C6
EE
7E
36
C6
FE
7C
ENDCHAR
STARTCHAR Gbreve
ENCODING 286
SWIDTH 638 0
DWIDTH 11 0
BBX 9 15 1 0
BITMAP
2200
1C00
0000
1E00
7F00
6380
C180
C000
C000
C780
C780
C180
6180
7F80
1E00
ENDCHAR
STARTCHAR gbreve
ENCODING 287
SWIDTH 500 0
DWIDTH 9 0
BBX 7 15 1 -3
BITMAP
44
38
00
36
7E
EE
C6
C6
C6
EE
7E
36
C6
FE
7C
ENDCHAR
STARTCHAR Gdot
ENCODING 288
SWIDTH 638 0
DWIDTH 11 0
BBX 9 15 1 0
BITMAP
0C00
0C00
0000
1E00
7F00
6380
C180
C000
C000
C780
C780
C180
6180
7F80
1E00
ENDCHAR
STARTCHAR gdot
ENCODING 289
SWIDTH 500 0
DWIDTH 9 0
BBX 7 15 1 -3
BITMAP
18
18
00
36
7E
EE
C6
C6
C6
EE
7E
36
C6
FE
7C
ENDCHAR
STARTCHAR Gcedilla
ENCODING 290
SWIDTH 638 0
DWIDTH 11 0
BBX 9 16 1 -4
BITMAP
1E00
7F00
6380
C180
C000
C000
C780
C780
C180
6180
7F80
1E00
1C00
0400
0400
3800
ENDCHAR
STARTCHAR gcedilla
ENCODING 291
SWIDTH 500 0
DWIDTH 9 0
BBX 7 17 1 -3
BITMAP
10
20
30
30
00
36
7E
EE
C6
C6
C6
EE
7E
36
C6
FE
7C
ENDCHAR
STARTCHAR Hcircumflex
ENCODING 292
SWIDTH 591 0
DWIDTH 10 0
BBX 8 15 1 0
BITMAP
38
6C
00
C3
C3
C3
C3
C3
FF
FF
C3
C3
C3
C3
C3
ENDCHAR
STARTCHAR hcircumflex
ENCODING 293
SWIDTH 500 0
DWIDTH 9 0
BBX 7 15 1 0
BITMAP
38
6C
00
C0
C0
C0
DC
FE
E6
C6
C6
C6
C6
C6
C6
ENDCHAR
STARTCHAR Hbar
ENCODING 294
SWIDTH 591 0
DWIDTH 10 0
BBX 10 12 0 0
BITMAP
6180
FFC0
FFC0
6180
6180
7F80
7F80
6180
6180
6180
6180
6180
ENDCHAR
STARTCHAR hbar
ENCODING 295
SWIDTH 500 0
DWIDTH 9 0
BBX 8 12 0 0
BITMAP
60
FC
60
6E
7F
73
63
63
63
63
63
63
ENDCHAR
STARTCHAR Itilde
ENCODING 296
SWIDTH 228 0
DWIDTH 4 0
BBX 5 15 -1 0
BITMAP
E8
B8
00
30
30
30
30
30
30
30
30
30
30
30
30
ENDCHAR
STARTCHAR itilde
ENCODING 297
SWIDTH 228 0
DWIDTH 4 0
BBX 5 12 -1 0
BITMAP
E8
B8
00
30
30
30
30
30
30
30
30
30
ENDCHAR
STARTCHAR Imacron
ENCODING 298
SWIDTH 228 0
DWIDTH 4 0
BBX 5 15 -1 0
BITMAP
F8
F8
00
30
30
30
30
30
30
30
30
30
30
30
30
ENDCHAR
STARTCHAR imacron
ENCODING 299
SWIDTH 228 0
DWIDTH 4 0
BBX 5 12 -1 0
BITMAP
F8
F8
00
30
30
30
30
30
30
30
30
30
ENDCHAR
STARTCHAR Ibreve
ENCODING 300
SWIDTH 228 0
DWIDTH 4 0
BBX 5 15 -1 0
BITMAP
88
70
00
30
30
30
30
30
30
30
30
30
30
30
30
ENDCHAR
STARTCHAR ibreve
ENCODING 301
SWIDTH 228 0
DWIDTH 4 0
BBX 5 12 -1 0
BITMAP
88
70
00
30
30
30
30
30
30
30
30
30
ENDCHAR
STARTCHAR Iogonek
ENCODING 302
SWIDTH 228 0
DWIDTH 4 0
BBX 3 15 1 -3
BITMAP
C0
C0
C0
C0
C0
C0
C0
C0
C0
C0
C0
C0
80
80
E0
ENDCHAR
STARTCHAR iogonek
ENCODING 303
SWIDTH 228 0
DWIDTH 4 0
BBX 3 15 1 -3
BITMAP
C0
C0
00
C0
C0
C0
C0
C0
C0
C0
C0
C0
80
80
E0
ENDCHAR
STARTCHAR Idot
ENCODING 304
SWIDTH 228 0
DWIDTH 4 0
BBX 2 15 1 0
BITMAP
C0
C0
00
C0
C0
C0
C0
C0
C0
C0
C0
C0
C0
C0
C0
ENDCHAR
STARTCHAR dotlessi
ENCODING 305
SWIDTH 228 0
DWIDTH 4 0
BBX 2 9 1 0
BITMAP
C0
C0
C0
C0
C0
C0
C0
C0
C0
ENDCHAR
STARTCHAR IJ
ENCODING 306
SWIDTH 684 0
DWIDTH 12 0
BBX 10 12 1 0
BITMAP
C0C0
C0C0
C0C0
C0C0
C0C0
C0C0
C0C0
C0C0
D8C0
D8C0
CF80
CF00
ENDCHAR
STARTCHAR ij
ENCODING 307
SWIDTH 456 0
DWIDTH 8 0
BBX 6 15 1 -3
BITMAP
CC
CC
00
CC
CC
CC
CC
CC
CC
CC
CC
CC
0C
3C
38
ENDCHAR
STARTCHAR Jcircumflex
ENCODING 308
SWIDTH 456 0
DWIDTH 8 0
BBX 9 15 0 0
BITMAP
0700
0D80
0000
0600
0600
0600
0600
0600
0600
0600
0600
C600
C600
7C00
7800
ENDCHAR
STARTCHAR jcircumflex
ENCODING 309
SWIDTH 228 0
DWIDTH 4 0
BBX 6 15 -1 -3
BITMAP
38
6C
00
30
30
30
30
30
30
30
30
30
30
F0
E0
ENDCHAR
STARTCHAR Kcedilla
ENCODING 310
SWIDTH 591 0
DWIDTH 10 0
BBX 9 16 1 -4
BITMAP
C180
C300
C600
CC00
D800
F800
EC00
C600
C600
C300
C180
C180
1C00
0400
0400
3800
ENDCHAR
STARTCHAR kcedilla
ENCODING 311
SWIDTH 456 0
DWIDTH 8 0
BBX 6 16 1 -4
BITMAP
C0
C0
C0
CC
D8
D8
F0
F8
D8
CC
CC
CC
38
08
08
70
ENDCHAR
STARTCHAR kgreenlandic
ENCODING 312
SWIDTH 457 0
DWIDTH 8 0
BBX 7 9 1 0
BITMAP
C6
CC
D8
F0
E0
F0
D8
CC
C6
ENDCHAR
STARTCHAR Lacute
ENCODING 313
SWIDTH 500 0
DWIDTH 9 0
BBX 7 15 1 0
BITMAP
30
60
00
C0
C0
C0
C0
C0
C0
C0
C0
C0
C0
FE
FE
ENDCHAR
STARTCHAR lacute
ENCODING 314
SWIDTH 228 0
DWIDTH 4 0
BBX 3 15 0 0
BITMAP
60
C0
00
60
60
60
60
60
60
60
60
60
60
60
60
ENDCHAR
STARTCHAR Lcedilla
ENCODING 315
SWIDTH 500 0
DWIDTH 9 0
BBX 7 16 1 -4
BITMAP
C0
C0
C0
C0
C0
C0
C0
C0
C0
C0
FE
FE
38
08
08
70
ENDCHAR
STARTCHAR lcedilla
ENCODING 316
SWIDTH 228 0
DWIDTH 4 0
BBX 4 16 -1 -4
BITMAP
30
30
30
30
30
30
30
30
30
30
30
30
70
10
10
E0
ENDCHAR
STARTCHAR Lcaron
ENCODING 317
SWIDTH 500 0
DWIDTH 9 0
BBX 7 12 1 0
BITMAP
CC
CC
C4
C8
C0
C0
C0
C0
C0
C0
FE
FE
ENDCHAR
STARTCHAR lcaron
ENCODING 318
SWIDTH 315 0
DWIDTH 5 0
BBX 5 12 1 0
BITMAP
D8
D8
C8
C8
D0
C0
C0
C0
C0
C0
C0
C0
ENDCHAR
STARTCHAR Ldot
ENCODING 319
SWIDTH 500 0
DWIDTH 9 0
BBX 7 12 1 0
BITMAP
C0
C0
C0
C0
C0
D8
D8
C0
C0
C0
FE
FE
ENDCHAR
STARTCHAR ldot
ENCODING 320
SWIDTH 333 0
DWIDTH 6 0
BBX 5 12 1 0
BITMAP
C0
C0
C0
C0
C0
D8
D8
C0
C0
C0
C0
C0
ENDCHAR
STARTCHAR Lslash
ENCODING 321
SWIDTH 500 0
DWIDTH 9 0
BBX 8 12 0 0
BITMAP
60
60
60
70
70
60
E0
E0
E0
60
7F
7F
ENDCHAR
STARTCHAR lslash
ENCODING 322
SWIDTH 228 0
DWIDTH 4 0
BBX 4 12 0 0
BITMAP
60
60
60
60
70
60
60
E0
60
60
60
60
ENDCHAR
STARTCHAR Nacute
ENCODING 323
SWIDTH 591 0
DWIDTH 10 0
BBX 8 15 1 0
BITMAP
18
30
00
C3
E3
E3
F3
F3
DB
DB
CF
CF
C7
C7
C3
ENDCHAR
STARTCHAR nacute
ENCODING 324
SWIDTH 500 0
DWIDTH 9 0
BBX 7 12 1 0
BITMAP
30
60
00
DC
FE
E6
C6
C6
C6
C6
C6
C6
ENDCHAR
STARTCHAR Ncedilla
ENCODING 325
SWIDTH 591 0
DWIDTH 10 0
BBX 8 16 1 -4
BITMAP
C3
E3
E3
F3
F3
DB
DB
CF
CF
C7
C7
C3
38
08
08
70
ENDCHAR
STARTCHAR ncedilla
ENCODING 326
SWIDTH 500 0
DWIDTH 9 0
BBX 7 13 1 -4
BITMAP
DC
FE
E6
C6
C6
C6
C6
C6
C6
38
08
08
70
ENDCHAR
STARTCHAR Ncaron
ENCODING 327
SWIDTH 591 0
DWIDTH 10 0
BBX 8 15 1 0
BITMAP
6C
38
00
C3
E3
E3
F3
F3
DB
DB
CF
CF
C7
C7
C3
ENDCHAR
STARTCHAR ncaron
ENCODING 328
SWIDTH 500 0
DWIDTH 9 0
BBX 7 12 1 0
BITMAP
6C
38
00
DC
FE
E6
C6
C6
C6
C6
C6
C6
ENDCHAR
STARTCHAR napostrophe
ENCODING 329
SWIDTH 675 0
DWIDTH 11 0
BBX 10 12 1 0
BITMAP
C000
C000
4000
5B80
9FC0
1CC0
18C0
18C0
18C0
18C0
18C0
18C0
ENDCHAR
STARTCHAR Eng
ENCODING 330
SWIDTH 592 0
DWIDTH 10 0
BBX 8 12 1 0
BITMAP
CC
FE
E7
C3
C3
C3
C3
C3
C3
D3
DE
CC
ENDCHAR
STARTCHAR eng
ENCODING 331
SWIDTH 500 0
DWIDTH 9 0
BBX 7 12 1 -3
BITMAP
DC
FE
E6
C6
C6
C6
C6
C6
C6
06
1E
1C
ENDCHAR
STARTCHAR Omacron
ENCODING 332
SWIDTH 638 0
DWIDTH 11 0
BBX 9 15 1 0
BITMAP
3E00
3E00
0000
3E00
7F00
6300
C180
C180
C180
C180
C180
C180
6300
7F00
3E00
ENDCHAR
STARTCHAR omacron
ENCODING 333
SWIDTH 500 0
DWIDTH 9 0
BBX 7 12 1 0
BITMAP
7C
7C
00
38
7C
EE
C6
C6
C6
EE
7C
38
ENDCHAR
STARTCHAR Obreve
ENCODING 334
SWIDTH 638 0
DWIDTH 11 0
BBX 9 15 1 0
BITMAP
2200
1C00
0000
3E00
7F00
6300
C180
C180
C180
C180
C180
C180
6300
7F00
3E00
ENDCHAR
STARTCHAR obreve
ENCODING 335
SWIDTH 500 0
DWIDTH 9 0
BBX 7 12 1 0
BITMAP
44
38
00
38
7C
EE
C6
C6
C6
EE
7C
38
ENDCHAR
STARTCHAR Odblacute
ENCODING 336
SWIDTH 638 0
DWIDTH 11 0
BBX 9 15 1 0
BITMAP
1B00
3600
0000
3E00
7F00
6300
C180
C180
C180
C180
C180
C180
6300
7F00
3E00
ENDCHAR
STARTCHAR odblacute
ENCODING 337
SWIDTH 500 0
DWIDTH 9 0
BBX 7 12 1 0
BITMAP
36
6C
00
38
7C
EE
C6
C6
C6
EE
7C
38
ENDCHAR
STARTCHAR OE
ENCODING 338
SWIDTH 819 0
DWIDTH 14 0
BBX 12 12 1 0
BITMAP
3BF0
7FF0
6700
C300
C300
C3F0
C3F0
C300
C300
6700
7FF0
3BF0
ENDCHAR
STARTCHAR oe
ENCODING 339
SWIDTH 773 0
DWIDTH 13 0
BBX 11 9 1 0
BITMAP
3980
7FC0
EE60
C7E0
C7E0
C600
EE60
7FE0
39C0
ENDCHAR
STARTCHAR Racute
ENCODING 340
SWIDTH 591 0
DWIDTH 10 0
BBX 9 15 1 0
BITMAP
1800
3000
0000
FE00
FF00
C300
C300
C300
FF00
FC00
CE00
C600
C300
C300
C180
ENDCHAR
STARTCHAR racute
ENCODING 341
SWIDTH 318 0
DWIDTH 6 0
BBX 5 12 1 0
BITMAP
60
C0
00
F8
F8
C0
C0
C0
C0
C0
C0
C0
ENDCHAR
STARTCHAR Rcedilla
ENCODING 342
SWIDTH 591 0
DWIDTH 10 0
BBX 9 16 1 -4
BITMAP
FE00
FF00
C300
C300
C300
FF00
FC00
CE00
C600
C300
C300
C180
3800
0800
0800
7000
ENDCHAR
STARTCHAR rcedilla
ENCODING 343
SWIDTH 318 0
DWIDTH 6 0
BBX 5 13 1 -4
BITMAP
F8
F8
C0
C0
C0
C0
C0
C0
C0
70
10
10
E0
ENDCHAR
STARTCHAR Rcaron
ENCODING 344
SWIDTH 591 0
DWIDTH 10 0
BBX 9 15 1 0
BITMAP
3600
1C00
0000
FE00
FF00
C300
C300
C300
FF00
FC00
CE00
C600
C300
C300
C180
ENDCHAR
STARTCHAR rcaron
ENCODING 345
SWIDTH 318 0
DWIDTH 6 0
BBX 5 12 1 0
BITMAP
D8
70
00
F8
F8
C0
C0
C0
C0
C0
C0
C0
ENDCHAR
STARTCHAR Sacute
ENCODING 346
SWIDTH 546 0
DWIDTH 9 0
BBX 7 15 1 0
BITMAP
0C
18
00
7C
FE
C6
C6
C0
78
3C
06
C6
C6
FE
7C
ENDCHAR
STARTCHAR sacute
ENCODING 347
SWIDTH 456 0
DWIDTH 8 0
BBX 6 12 1 0
BITMAP
30
60
00
78
FC
CC
E0
78
1C
CC
FC
78
ENDCHAR
STARTCHAR Scircumflex
ENCODING 348
SWIDTH 546 0
DWIDTH 9 0
BBX 7 15 1 0
BITMAP
38
6C
00
7C
FE
C6
C6
C0
78
3C
06
C6
C6
FE
7C
ENDCHAR
STARTCHAR scircumflex
ENCODING 349
SWIDTH 456 0
DWIDTH 8 0
BBX 6 12 1 0
BITMAP
38
6C
00
78
FC
CC
E0
78
1C
CC
FC
78
ENDCHAR
STARTCHAR Scedilla
ENCODING 350
SWIDTH 546 0
DWIDTH 9 0
BBX 7 16 1 -4
BITMAP
7C
FE
C6
C6
C0
78
3C
06
C6
C6
FE
7C
38
08
08
70
ENDCHAR
STARTCHAR scedilla
ENCODING 351
SWIDTH 456 0
DWIDTH 8 0
BBX 6 13 1 -4
BITMAP
78
FC
CC
E0
78
1C
CC
FC
78
70
10
10
E0
ENDCHAR
STARTCHAR Scaron
ENCODING 352
SWIDTH 546 0
DWIDTH 9 0
BBX 7 15 1 0
BITMAP
6C
38
00
7C
FE
C6
C6
C0
78
3C
06
C6
C6
FE
7C
ENDCHAR
STARTCHAR scaron
ENCODING 353
SWIDTH 456 0
DWIDTH 8 0
BBX 6 12 1 0
BITMAP
6C
38
00
78
FC
CC
E0
78
1C
CC
FC
78
ENDCHAR
STARTCHAR Tcedilla
ENCODING 354
SWIDTH 500 0
DWIDTH 9 0
BBX 8 16 0 -4
BITMAP
FF
FF
18
18
18
18
18
18
18
18
18
18
1C
04
04
38
ENDCHAR
STARTCHAR tcedilla
ENCODING 355
SWIDTH 272 0
DWIDTH 5 0
BBX 5 16 0 -4
BITMAP
20
60
60
F8
F8
60
60
60
60
60
78
38
70
10
10
E0
ENDCHAR
STARTCHAR Tcaron
ENCODING 356
SWIDTH 500 0
DWIDTH 9 0
BBX 8 15 0 0
BITMAP
6C
38
00
FF
FF
18
18
18
18
18
18
18
18
18
18
ENDCHAR
STARTCHAR tcaron
ENCODING 357
SWIDTH 393 0
DWIDTH 7 0
BBX 8 12 0 0
BITMAP
23
63
61
FA
F8
60
60
60
60
60
78
38
ENDCHAR
STARTCHAR Tbar
ENCODING 358
SWIDTH 500 0
DWIDTH 9 0
BBX 8 12 0 0
BITMAP
FF
FF
18
18
18
18
7E
7E
18
18
18
18
ENDCHAR
STARTCHAR tbar
ENCODING 359
SWIDTH 272 0
DWIDTH 5 0
BBX 5 12 0 0
BITMAP
20
60
60
F8
F8
60
60
F8
F8
60
78
78
ENDCHAR
STARTCHAR Utilde
ENCODING 360
SWIDTH 591 0
DWIDTH 10 0
BBX 8 15 1 0
BITMAP
74
5C
00
C3
C3
C3
C3
C3
C3
C3
C3
C3
E7
7E
3C
ENDCHAR
STARTCHAR utilde
ENCODING 361
SWIDTH 500 0
DWIDTH 9 0
BBX 7 12 1 0
BITMAP
74
5C
00
C6
C6
C6
C6
C6
C6
CE
FE
76
ENDCHAR
STARTCHAR Umacron
ENCODING 362
SWIDTH 591 0
DWIDTH 10 0
BBX 8 15 1 0
BITMAP
7C
7C
00
C3
C3
C3
C3
C3
C3
C3
C3
C3
E7
7E
3C
ENDCHAR
STARTCHAR umacron
ENCODING 363
SWIDTH 500 0
DWIDTH 9 0
BBX 7 12 1 0
BITMAP
7C
7C
00
C6
C6
C6
C6
C6
C6
CE
FE
76
ENDCHAR
STARTCHAR Ubreve
ENCODING 364
SWIDTH 591 0
DWIDTH 10 0
BBX 8 15 1 0
BITMAP
44
38
00
C3
C3
C3
C3
C3
C3
C3
C3
C3
E7
7E
3C
ENDCHAR
STARTCHAR ubreve
ENCODING 365
SWIDTH 500 0
DWIDTH 9 0
BBX 7 12 1 0
BITMAP
44
38
00
C6
C6
C6
C6
C6
C6
CE
FE
76
ENDCHAR
STARTCHAR Uring
ENCODING 366
SWIDTH 591 0
DWIDTH 10 0
BBX 8 16 1 0
BITMAP
38
28
38
00
C3
C3
C3
C3
C3
C3
C3
C3
C3
E7
7E
3C
ENDCHAR
STARTCHAR uring
ENCODING 367
SWIDTH 500 0
DWIDTH 9 0
BBX 7 13 1 0
BITMAP
38
28
38
00
C6
C6
C6
C6
C6
C6
CE
FE
76
ENDCHAR
STARTCHAR Udblacute
ENCODING 368
SWIDTH 591 0
DWIDTH 10 0
BBX 8 15 1 0
BITMAP
1B
36
00
C3
C3
C3
C3
C3
C3
C3
C3
C3
E7
7E
3C
ENDCHAR
STARTCHAR udblacute
ENCODING 369
SWIDTH 500 0
DWIDTH 9 0
BBX 7 12 1 0
BITMAP
36
6C
00
C6
C6
C6
C6
C6
C6
CE
FE
76
ENDCHAR
STARTCHAR Uogonek
ENCODING 370
SWIDTH 591 0
DWIDTH 10 0
BBX 8 15 1 -3
BITMAP
C3
C3
C3
C3
C3
C3
C3
C3
C3
E7
7E
3C
10
10
1C
ENDCHAR
STARTCHAR uogonek
ENCODING 371
SWIDTH 500 0
DWIDTH 9 0
BBX 8 12 1 -3
BITMAP
C6
C6
C6
C6
C6
C6
CE
FE
76
04
04
07
ENDCHAR
STARTCHAR Wcircumflex
ENCODING 372
SWIDTH 773 0
DWIDTH 13 0
BBX 13 15 0 0
BITMAP
0700
0D80
0000
C718
C718
C718
6530
6DB0
6DB0
6DB0
6DB0
28A0
38E0
38E0
38E0
ENDCHAR
STARTCHAR wcircumflex
ENCODING 373
SWIDTH 638 0
DWIDTH 11 0
BBX 11 12 0 0
BITMAP
0E00
1B00
0000
CE60
CE60
6EC0
6AC0
6AC0
2A80
3B80
3B80
3B80
ENDCHAR
STARTCHAR Ycircumflex
ENCODING 374
SWIDTH 546 0
DWIDTH 8 0
BBX 8 15 0 0
BITMAP
38
6C
00
C3
66
66
3C
3C
3C
18
18
18
18
18
18
ENDCHAR
STARTCHAR ycircumflex
ENCODING 375
SWIDTH 456 0
DWIDTH 8 0
BBX 8 15 0 -3
BITMAP
38
6C
00
C3
C3
66
66
66
3C
3C
3C
18
18
F0
E0
ENDCHAR
STARTCHAR Ydieresis
ENCODING 376
SWIDTH 546 0
DWIDTH 8 0
BBX 8 15 0 0
BITMAP
6C
6C
00
C3
66
66
3C
3C
3C
18
18
18
18
18
18
ENDCHAR
STARTCHAR Zacute
ENCODING 377
SWIDTH 500 0
DWIDTH 9 0
BBX 8 15 0 0
BITMAP
18
30
00
FF
FF
07
06
0C
18
38
30
60
C0
FF
FF
ENDCHAR
STARTCHAR zacute
ENCODING 378
SWIDTH 410 0
DWIDTH 7 0
BBX 7 12 0 0
BITMAP
30
60
00
FE
FE
0C
18
30
30
60
FE
FE
ENDCHAR
STARTCHAR Zdot
ENCODING 379
SWIDTH 500 0
DWIDTH 9 0
BBX 8 15 0 0
BITMAP
18
18
00
FF
FF
07
06
0C
18
38
30
60
C0
FF
FF
ENDCHAR
STARTCHAR zdot
ENCODING 380
SWIDTH 410 0
DWIDTH 7 0
BBX 7 12 0 0
BITMAP
18
18
00
FE
FE
0C
18
30
30
60
FE
FE
ENDCHAR
STARTCHAR Zcaron
ENCODING 381
SWIDTH 500 0
DWIDTH 9 0
BBX 8 15 0 0
BITMAP
6C
38
00
FF
FF
07
06
0C
18
38
30
60
C0
FF
FF
ENDCHAR
STARTCHAR zcaron
ENCODING 382
SWIDTH 410 0
DWIDTH 7 0
BBX 7 12 0 0
BITMAP
36
1C
00
FE
FE
0C
18
30
30
60
FE
FE
ENDCHAR
STARTCHAR longs
ENCODING 383
SWIDTH 228 0
DWIDTH 4 0
BBX 4 12 1 0
BITMAP
70
F0
C0
C0
C0
C0
C0
C0
C0
C0
C0
C0
ENDCHAR
STARTCHAR florin
ENCODING 402
SWIDTH 456 0
DWIDTH 8 0
BBX 7 15 0 -3
BITMAP
0E
1E
18
3C
3C
18
18
38
30
30
30
30
30
F0
E0
ENDCHAR
STARTCHAR Aringacute
ENCODING 506
SWIDTH 610 0
DWIDTH 10 0
BBX 9 19 0 0
BITMAP
0C00
1800
0000
1C00
1400
1C00
0000
1C00
1C00
1C00
3600
3600
3600
6300
7F00
7F00
6300
C180
C180
ENDCHAR
STARTCHAR aringacute
ENCODING 507
SWIDTH 500 0
DWIDTH 9 0
BBX 6 16 1 0
BITMAP
18
30
00
70
50
70
00
78
FC
CC
1C
7C
CC
CC
FC
6C
ENDCHAR
STARTCHAR AEacute
ENCODING 508
SWIDTH 819 0
DWIDTH 14 0
BBX 13 15 0 0
BITMAP
00C0
0180
0000
07F8
0FF8
0D80
1980
1980
19F8
31F8
3F80
7F80
6180
61F8
C1F8
ENDCHAR
STARTCHAR aeacute
ENCODING 509
SWIDTH 729 0
DWIDTH 12 0
BBX 10 12 1 0
BITMAP
0600
0C00
0000
7B80
FFC0
CCC0
1FC0
7FC0
CC00
CCC0
FFC0
7380
ENDCHAR
STARTCHAR Oslashacute
ENCODING 510
SWIDTH 638 0
DWIDTH 11 0
BBX 9 15 1 0
BITMAP
0600
0C00
0000
3C80
7F80
6300
C780
C580
CD80
D980
D180
F180
6300
FF00
BE00
ENDCHAR
STARTCHAR oslashacute
ENCODING 511
SWIDTH 500 0
DWIDTH 9 0
BBX 7 12 1 0
BITMAP
0C
18
00
3A
7C
EE
CE
D6
E6
EE
7C
B8
ENDCHAR
STARTCHAR uni0218
ENCODING 536
SWIDTH 546 0
DWIDTH 9 0
BBX 7 17 1 -5
BITMAP
7C
FE
C6
C6
C0
78
3C
06
C6
C6
FE
7C
00
30
30
10
20
ENDCHAR
STARTCHAR uni0219
ENCODING 537
SWIDTH 456 0
DWIDTH 8 0
BBX 6 14 1 -5
BITMAP
78
FC
CC
E0
78
1C
CC
FC
78
00
30
30
10
20
ENDCHAR
STARTCHAR uni021A
ENCODING 538
SWIDTH 500 0
DWIDTH 9 0
BBX 8 17 0 -5
BITMAP
FF
FF
18
18
18
18
18
18
18
18
18
18
00
18
18
08
10
ENDCHAR
STARTCHAR uni021B
ENCODING 539
SWIDTH 272 0
DWIDTH 5 0
BBX 5 17 0 -5
BITMAP
20
60
60
F8
F8
60
60
60
60
60
78
38
00
30
30
10
20
ENDCHAR
STARTCHAR circumflex
ENCODING 710
SWIDTH 272 0
DWIDTH 5 0
BBX 5 2 0 10
BITMAP
70
D8
ENDCHAR
STARTCHAR caron
ENCODING 711
SWIDTH 272 0
DWIDTH 5 0
BBX 5 2 0 10
BITMAP
D8
70
ENDCHAR
STARTCHAR macron
ENCODING 713
SWIDTH 272 0
DWIDTH 5 0
BBX 5 2 0 10
BITMAP
F8
F8
ENDCHAR
STARTCHAR breve
ENCODING 728
SWIDTH 272 0
DWIDTH 5 0
BBX 5 2 0 10
BITMAP
88
70
ENDCHAR
STARTCHAR dotaccent
ENCODING 729
SWIDTH 272 0
DWIDTH 4 0
BBX 2 2 1 10
BITMAP
C0
C0
ENDCHAR
STARTCHAR ring
ENCODING 730
SWIDTH 272 0
DWIDTH 5 0
BBX 3 3 1 10
BITMAP
E0
A0
E0
ENDCHAR
STARTCHAR ogonek
ENCODING 731
SWIDTH 272 0
DWIDTH 5 0
BBX 3 3 1 -3
BITMAP
80
80
E0
ENDCHAR
STARTCHAR tilde
ENCODING 732
SWIDTH 272 0
DWIDTH 5 0
BBX 5 2 0 10
BITMAP
E8
B8
ENDCHAR
STARTCHAR hungarumlaut
ENCODING 733
SWIDTH 272 0
DWIDTH 6 0
BBX 6 2 1 10
BITMAP
6C
D8
ENDCHAR
STARTCHAR semicolon.dup2
ENCODING 894
SWIDTH 272 0
DWIDTH 5 0
BBX 2 12 1 -3
BITMAP
C0
C0
00
00
00
00
00
C0
C0
40
40
80
ENDCHAR
STARTCHAR tonos
ENCODING 900
SWIDTH 272 0
DWIDTH 5 0
BBX 3 2 1 10
BITMAP
60
C0
ENDCHAR
STARTCHAR dieresistonos
ENCODING 901
SWIDTH 272 0
DWIDTH 5 0
BBX 7 2 -1 10
BITMAP
D6
D6
ENDCHAR
STARTCHAR Alphatonos
ENCODING 902
SWIDTH 591 0
DWIDTH 10 0
BBX 9 12 0 0
BITMAP
7C00
DC00
1C00
3600
3600
3600
6300
7F00
7F00
6300
C180
C180
ENDCHAR
STARTCHAR anoteleia
ENCODING 903
SWIDTH 272 0
DWIDTH 5 0
BBX 2 2 1 7
BITMAP
C0
C0
ENDCHAR
STARTCHAR Epsilontonos
ENCODING 904
SWIDTH 700 0
DWIDTH 12 0
BBX 11 12 0 0
BITMAP
6FE0
CFE0
0C00
0C00
0C00
0FE0
0FE0
0C00
0C00
0C00
0FE0
0FE0
ENDCHAR
STARTCHAR Etatonos
ENCODING 905
SWIDTH 743 0
DWIDTH 13 0
BBX 12 12 0 0
BITMAP
6C30
CC30
0C30
0C30
0C30
0FF0
0FF0
0C30
0C30
0C30
0C30
0C30
ENDCHAR
STARTCHAR Iotatonos
ENCODING 906
SWIDTH 385 0
DWIDTH 7 0
BBX 6 12 0 0
BITMAP
6C
CC
0C
0C
0C
0C
0C
0C
0C
0C
0C
0C
ENDCHAR
STARTCHAR Omicrontonos
ENCODING 908
SWIDTH 674 0
DWIDTH 11 0
BBX 12 12 -1 0
BITMAP
67C0
CFE0
0C60
1830
1830
1830
1830
1830
1830
0C60
0FE0
07C0
ENDCHAR
STARTCHAR Upsilontonos
ENCODING 910
SWIDTH 760 0
DWIDTH 13 0
BBX 12 12 0 0
BITMAP
6C30
C660
0660
03C0
03C0
03C0
0180
0180
0180
0180
0180
0180
ENDCHAR
STARTCHAR Omegatonos
ENCODING 911
SWIDTH 687 0
DWIDTH 12 0
BBX 12 12 -1 0
BITMAP
67C0
CFE0
0C60
1830
1830
1830
1830
1830
0C60
0C60
1EF0
1EF0
ENDCHAR
STARTCHAR iotadieresistonos
ENCODING 912
SWIDTH 228 0
DWIDTH 4 0
BBX 7 12 -1 0
BITMAP
D6
D6
00
30
30
30
30
30
30
30
30
30
ENDCHAR
STARTCHAR Alpha
ENCODING 913
SWIDTH 591 0
DWIDTH 10 0
BBX 9 12 0 0
BITMAP
1C00
1C00
1C00
3600
3600
3600
6300
7F00
7F00
6300
C180
C180
ENDCHAR
STARTCHAR Beta
ENCODING 914
SWIDTH 591 0
DWIDTH 10 0
BBX 8 12 1 0
BITMAP
FE
FF
C3
C3
C3
FE
FE
C3
C3
C3
FF
FE
ENDCHAR
STARTCHAR Gamma
ENCODING 915
SWIDTH 493 0
DWIDTH 8 0
BBX 6 12 1 0
BITMAP
FC
FC
C0
C0
C0
C0
C0
C0
C0
C0
C0
C0
ENDCHAR
STARTCHAR Delta
ENCODING 916
SWIDTH 588 0
DWIDTH 10 0
BBX 9 12 0 0
BITMAP
1C00
1C00
1C00
3600
3600
3600
6300
6300
6300
6300
FF80
FF80
ENDCHAR
STARTCHAR Epsilon
ENCODING 917
SWIDTH 546 0
DWIDTH 9 0
BBX 7 12 1 0
BITMAP
FE
FE
C0
C0
C0
FE
FE
C0
C0
C0
FE
FE
ENDCHAR
STARTCHAR Zeta
ENCODING 918
SWIDTH 500 0
DWIDTH 9 0
BBX 8 12 0 0
BITMAP
FF
FF
07
06
0C
18
38
30
60
C0
FF
FF
ENDCHAR
STARTCHAR Eta
ENCODING 919
SWIDTH 591 0
DWIDTH 10 0
BBX 8 12 1 0
BITMAP
C3
C3
C3
C3
C3
FF
FF
C3
C3
C3
C3
C3
ENDCHAR
STARTCHAR Theta
ENCODING 920
SWIDTH 638 0
DWIDTH 11 0
BBX 9 12 1 0
BITMAP
1C00
7F00
6300
C180
C180
DD80
DD80
C180
C180
6300
7F00
1C00
ENDCHAR
STARTCHAR Iota
ENCODING 921
SWIDTH 228 0
DWIDTH 4 0
BBX 2 12 1 0
BITMAP
C0
C0
C0
C0
C0
C0
C0
C0
C0
C0
C0
C0
ENDCHAR
STARTCHAR Kappa
ENCODING 922
SWIDTH 591 0
DWIDTH 10 0
BBX 9 12 1 0
BITMAP
C180
C300
C600
CC00
D800
F800
EC00
C600
C600
C300
C180
C180
ENDCHAR
STARTCHAR Lambda
ENCODING 923
SWIDTH 546 0
DWIDTH 9 0
BBX 9 12 0 0
BITMAP
1C00
1C00
1C00
3600
3600
3600
6300
6300
6300
6300
C180
C180
ENDCHAR
STARTCHAR Mu
ENCODING 924
SWIDTH 683 0
DWIDTH 13 0
BBX 11 12 1 0
BITMAP
F0E0
F1E0
F1E0
F1E0
D160
DB60
DB60
DB60
CA60
CE60
CE60
CE60
ENDCHAR
STARTCHAR Nu
ENCODING 925
SWIDTH 591 0
DWIDTH 10 0
BBX 8 12 1 0
BITMAP
C3
E3
E3
F3
F3
DB
DB
CF
CF
C7
C7
C3
ENDCHAR
STARTCHAR Xi
ENCODING 926
SWIDTH 527 0
DWIDTH 9 0
BBX 7 12 1 0
BITMAP
FE
FE
00
00
00
7C
7C
00
00
00
FE
FE
ENDCHAR
STARTCHAR Omicron
ENCODING 927
SWIDTH 638 0
DWIDTH 11 0
BBX 9 12 1 0
BITMAP
3E00
7F00
6300
C180
C180
C180
C180
C180
C180
6300
7F00
3E00
ENDCHAR
STARTCHAR Pi
ENCODING 928
SWIDTH 591 0
DWIDTH 10 0
BBX 8 12 1 0
BITMAP
FF
FF
C3
C3
C3
C3
C3
C3
C3
C3
C3
C3
ENDCHAR
STARTCHAR Rho
ENCODING 929
SWIDTH 546 0
DWIDTH 9 0
BBX 8 12 1 0
BITMAP
FE
FF
C3
C3
C3
FE
FC
C0
C0
C0
C0
C0
ENDCHAR
STARTCHAR Sigma
ENCODING 931
SWIDTH 492 0
DWIDTH 8 0
BBX 6 12 1 0
BITMAP
FC
FC
C0
60
60
30
60
60
40
C0
FC
FC
ENDCHAR
STARTCHAR Tau
ENCODING 932
SWIDTH 500 0
DWIDTH 9 0
BBX 8 12 0 0
BITMAP
FF
FF
18
18
18
18
18
18
18
18
18
18
ENDCHAR
STARTCHAR Upsilon
ENCODING 933
SWIDTH 546 0
DWIDTH 8 0
BBX 8 12 0 0
BITMAP
C3
66
66
3C
3C
3C
18
18
18
18
18
18
ENDCHAR
STARTCHAR Phi
ENCODING 934
SWIDTH 670 0
DWIDTH 11 0
BBX 10 12 0 0
BITMAP
0C00
3F00
7F80
EDC0
CCC0
CCC0
CCC0
EDC0
7F80
3F00
0C00
0C00
ENDCHAR
STARTCHAR Chi
ENCODING 935
SWIDTH 546 0
DWIDTH 9 0
BBX 9 12 0 0
BITMAP
C180
6300
6300
3600
1C00
1C00
1C00
1C00
3600
6300
6300
C180
ENDCHAR
STARTCHAR Psi
ENCODING 936
SWIDTH 663 0
DWIDTH 11 0
BBX 10 12 0 0
BITMAP
CCC0
CCC0
CCC0
CCC0
CCC0
EDC0
7F80
3F00
0C00
0C00
0C00
0C00
ENDCHAR
STARTCHAR Ohm
ENCODING 937
SWIDTH 657 0
DWIDTH 11 0
BBX 9 12 1 0
BITMAP
3E00
7F00
6300
C180
C180
C180
C180
C180
6300
6300
F780
F780
ENDCHAR
STARTCHAR Iotadieresis
ENCODING 938
SWIDTH 228 0
DWIDTH 4 0
BBX 5 15 -1 0
BITMAP
D8
D8
00
30
30
30
30
30
30
30
30
30
30
30
30
ENDCHAR
STARTCHAR Upsilondieresis
ENCODING 939
SWIDTH 546 0
DWIDTH 8 0
BBX 8 15 0 0
BITMAP
6C
6C
00
C3
66
66
3C
3C
3C
18
18
18
18
18
18
ENDCHAR
STARTCHAR alphatonos
ENCODING 940
SWIDTH 503 0
DWIDTH 9 0
BBX 7 12 1 0
BITMAP
30
60
00
3A
7E
EE
C6
C6
C6
E6
7E
3A
ENDCHAR
STARTCHAR epsilontonos
ENCODING 941
SWIDTH 389 0
DWIDTH 7 0
BBX 6 12 1 0
BITMAP
30
60
00
7C
F8
C0
F0
70
C0
C0
F8
7C
ENDCHAR
STARTCHAR etatonos
ENCODING 942
SWIDTH 500 0
DWIDTH 9 0
BBX 7 15 1 -3
BITMAP
18
30
00
DC
FE
E6
C6
C6
C6
C6
C6
C6
06
06
06
ENDCHAR
STARTCHAR iotatonos
ENCODING 943
SWIDTH 228 0
DWIDTH 4 0
BBX 3 12 0 0
BITMAP
60
C0
00
60
60
60
60
60
60
60
60
60
ENDCHAR
STARTCHAR upsilondieresistonos
ENCODING 944
SWIDTH 477 0
DWIDTH 8 0
BBX 7 12 0 0
BITMAP
D6
D6
00
66
66
66
66
66
66
66
3C
3C
ENDCHAR
STARTCHAR alpha
ENCODING 945
SWIDTH 503 0
DWIDTH 9 0
BBX 7 9 1 0
BITMAP
3A
7E
EE
C6
C6
C6
E6
7E
3A
ENDCHAR
STARTCHAR beta
ENCODING 946
SWIDTH 500 0
DWIDTH 9 0
BBX 7 15 1 -3
BITMAP
78
7C
CC
CC
CC
D8
CC
C6
C6
E6
FE
DC
C0
C0
C0
ENDCHAR
STARTCHAR gamma
ENCODING 947
SWIDTH 456 0
DWIDTH 8 0
BBX 8 12 0 -3
BITMAP
C3
C3
66
66
66
3C
3C
3C
18
18
18
18
ENDCHAR
STARTCHAR delta
ENCODING 948
SWIDTH 497 0
DWIDTH 9 0
BBX 7 12 1 0
BITMAP
7E
7E
30
38
7C
EE
C6
C6
C6
EE
7C
38
ENDCHAR
STARTCHAR epsilon
ENCODING 949
SWIDTH 389 0
DWIDTH 7 0
BBX 6 9 1 0
BITMAP
7C
F8
C0
F0
70
C0
C0
F8
7C
ENDCHAR
STARTCHAR zeta
ENCODING 950
SWIDTH 376 0
DWIDTH 6 0
BBX 5 15 1 -3
BITMAP
78
78
38
30
60
60
C0
C0
C0
C0
F0
78
18
38
30
ENDCHAR
STARTCHAR eta
ENCODING 951
SWIDTH 500 0
DWIDTH 9 0
BBX 7 12 1 -3
BITMAP
DC
FE
E6
C6
C6
C6
C6
C6
C6
06
06
06
ENDCHAR
STARTCHAR theta
ENCODING 952
SWIDTH 442 0
DWIDTH 8 0
BBX 6 12 1 0
BITMAP
30
78
CC
CC
CC
FC
FC
CC
CC
CC
78
30
ENDCHAR
STARTCHAR iota
ENCODING 953
SWIDTH 228 0
DWIDTH 4 0
BBX 2 9 1 0
BITMAP
C0
C0
C0
C0
C0
C0
C0
C0
C0
ENDCHAR
STARTCHAR kappa
ENCODING 954
SWIDTH 457 0
DWIDTH 8 0
BBX 7 9 1 0
BITMAP
C6
CC
D8
F0
E0
F0
D8
CC
C6
ENDCHAR
STARTCHAR lambda
ENCODING 955
SWIDTH 456 0
DWIDTH 8 0
BBX 7 12 0 0
BITMAP
30
30
38
38
38
38
6C
6C
6C
6C
C6
C6
ENDCHAR
STARTCHAR mu
ENCODING 956
SWIDTH 500 0
DWIDTH 9 0
BBX 7 12 1 -3
BITMAP
C6
C6
C6
C6
C6
C6
C6
FE
F6
C0
C0
C0
ENDCHAR
STARTCHAR nu
ENCODING 957
SWIDTH 456 0
DWIDTH 8 0
BBX 8 9 0 0
BITMAP
C3
C3
66
66
66
3C
3C
3C
18
ENDCHAR
STARTCHAR xi
ENCODING 958
SWIDTH 365 0
DWIDTH 6 0
BBX 5 15 1 -3
BITMAP
70
F0
C0
C0
70
30
60
C0
C0
C0
F0
78
18
38
30
ENDCHAR
STARTCHAR omicron
ENCODING 959
SWIDTH 500 0
DWIDTH 9 0
BBX 7 9 1 0
BITMAP
38
7C
EE
C6
C6
C6
EE
7C
38
ENDCHAR
STARTCHAR pi
ENCODING 960
SWIDTH 627 0
DWIDTH 11 0
BBX 9 9 1 0
BITMAP
FF80
FF80
6300
6300
6300
6300
6300
6300
6300
ENDCHAR
STARTCHAR rho
ENCODING 961
SWIDTH 506 0
DWIDTH 9 0
BBX 7 12 1 -3
BITMAP
38
7C
E6
C6
C6
C6
CE
FC
F8
C0
C0
C0
ENDCHAR
STARTCHAR sigma1
ENCODING 962
SWIDTH 425 0
DWIDTH 7 0
BBX 6 12 1 -3
BITMAP
3C
7C
60
C0
C0
C0
E0
78
3C
0C
3C
38
ENDCHAR
STARTCHAR sigma
ENCODING 963
SWIDTH 561 0
DWIDTH 10 0
BBX 9 9 1 0
BITMAP
3F80
7F80
EE00
C600
C600
C600
EE00
7C00
3800
ENDCHAR
STARTCHAR tau
ENCODING 964
SWIDTH 366 0
DWIDTH 6 0
BBX 4 9 1 0
BITMAP
F0
F0
60
60
60
60
60
60
60
ENDCHAR
STARTCHAR upsilon
ENCODING 965
SWIDTH 477 0
DWIDTH 8 0
BBX 6 9 1 0
BITMAP
CC
CC
CC
CC
CC
CC
CC
78
78
ENDCHAR
STARTCHAR phi
ENCODING 966
SWIDTH 586 0
DWIDTH 10 0
BBX 8 12 1 -3
BITMAP
4C
DE
DB
DB
DB
DB
DB
7E
3C
18
18
18
ENDCHAR
STARTCHAR chi
ENCODING 967
SWIDTH 472 0
DWIDTH 8 0
BBX 8 12 0 -3
BITMAP
C3
E7
66
3C
3C
18
18
3C
3C
66
E7
C3
ENDCHAR
STARTCHAR psi
ENCODING 968
SWIDTH 618 0
DWIDTH 11 0
BBX 8 12 1 -3
BITMAP
DB
DB
DB
DB
DB
DB
DB
7E
7E
18
18
18
ENDCHAR
STARTCHAR omega
ENCODING 969
SWIDTH 692 0
DWIDTH 12 0
BBX 10 9 1 0
BITMAP
6180
C0C0
CCC0
CCC0
CCC0
CCC0
CCC0
7F80
7380
ENDCHAR
STARTCHAR iotadieresis
ENCODING 970
SWIDTH 228 0
DWIDTH 4 0
BBX 5 12 -1 0
BITMAP
D8
D8
00
30
30
30
30
30
30
30
30
30
ENDCHAR
STARTCHAR upsilondieresis
ENCODING 971
SWIDTH 477 0
DWIDTH 8 0
BBX 6 12 1 0
BITMAP
D8
D8
00
CC
CC
CC
CC
CC
CC
CC
78
78
ENDCHAR
STARTCHAR omicrontonos
ENCODING 972
SWIDTH 500 0
DWIDTH 9 0
BBX 7 12 1 0
BITMAP
30
60
00
38
7C
EE
C6
C6
C6
EE
7C
38
ENDCHAR
STARTCHAR upsilontonos
ENCODING 973
SWIDTH 477 0
DWIDTH 8 0
BBX 6 12 1 0
BITMAP
30
60
00
CC
CC
CC
CC
CC
CC
CC
78
78
ENDCHAR
STARTCHAR omegatonos
ENCODING 974
SWIDTH 692 0
DWIDTH 12 0
BBX 10 12 1 0
BITMAP
0C00
1800
0000
6180
C0C0
CCC0
CCC0
CCC0
CCC0
CCC0
7F80
7380
ENDCHAR
STARTCHAR afii10023
ENCODING 1025
SWIDTH 546 0
DWIDTH 9 0
BBX 7 15 1 0
BITMAP
6C
6C
00
FE
FE
C0
C0
C0
FE
FE
C0
C0
C0
FE
FE
ENDCHAR
STARTCHAR afii10051
ENCODING 1026
SWIDTH 726 0
DWIDTH 12 0
BBX 11 12 0 0
BITMAP
FF00
FF00
1800
1800
1B80
1FC0
1CE0
1860
1860
1860
19C0
19C0
ENDCHAR
STARTCHAR afii10052
ENCODING 1027
SWIDTH 493 0
DWIDTH 8 0
BBX 6 15 1 0
BITMAP
30
60
00
FC
FC
C0
C0
C0
C0
C0
C0
C0
C0
C0
C0
ENDCHAR
STARTCHAR afii10053
ENCODING 1028
SWIDTH 583 0
DWIDTH 10 0
BBX 8 12 1 0
BITMAP
3C
7E
67
C3
C0
F8
F8
C2
C3
67
7E
3C
ENDCHAR
STARTCHAR afii10054
ENCODING 1029
SWIDTH 546 0
DWIDTH 9 0
BBX 7 12 1 0
BITMAP
7C
FE
C6
C6
C0
78
3C
06
C6
C6
FE
7C
ENDCHAR
STARTCHAR afii10055
ENCODING 1030
SWIDTH 228 0
DWIDTH 4 0
BBX 2 12 1 0
BITMAP
C0
C0
C0
C0
C0
C0
C0
C0
C0
C0
C0
C0
ENDCHAR
STARTCHAR afii10056
ENCODING 1031
SWIDTH 228 0
DWIDTH 4 0
BBX 5 15 -1 0
BITMAP
D8
D8
00
30
30
30
30
30
30
30
30
30
30
30
30
ENDCHAR
STARTCHAR afii10057
ENCODING 1032
SWIDTH 456 0
DWIDTH 8 0
BBX 7 12 0 0
BITMAP
06
06
06
06
06
06
06
06
C6
C6
7C
78
ENDCHAR
STARTCHAR afii10058
ENCODING 1033
SWIDTH 896 0
DWIDTH 15 0
BBX 14 12 0 0
BITMAP
3F00
3F00
3300
3300
3300
33F8
33FC
330C
330C
330C
F3FC
E3F8
ENDCHAR
STARTCHAR afii10059
ENCODING 1034
SWIDTH 872 0
DWIDTH 15 0
BBX 13 12 1 0
BITMAP
C600
C600
C600
C600
C600
FFF0
FFF0
C618
C618
C618
C7F8
C7F0
ENDCHAR
STARTCHAR afii10060
ENCODING 1035
SWIDTH 716 0
DWIDTH 12 0
BBX 11 12 0 0
BITMAP
FF00
FF00
1800
1800
1B80
1FC0
1CE0
1860
1860
1860
1860
1860
ENDCHAR
STARTCHAR afii10061
ENCODING 1036
SWIDTH 500 0
DWIDTH 9 0
BBX 8 15 1 0
BITMAP
18
30
00
C3
C7
CE
CC
CC
F8
F8
DC
CC
C6
C6
C3
ENDCHAR
STARTCHAR afii10062
ENCODING 1038
SWIDTH 509 0
DWIDTH 9 0
BBX 9 15 0 0
BITMAP
2200
1C00
0000
C180
6300
6300
6300
3600
3600
1C00
1C00
1C00
1800
7800
7000
ENDCHAR
STARTCHAR afii10145
ENCODING 1039
SWIDTH 589 0
DWIDTH 10 0
BBX 8 15 1 -3
BITMAP
C3
C3
C3
C3
C3
C3
C3
C3
C3
C3
FF
FF
18
18
18
ENDCHAR
STARTCHAR afii10017
ENCODING 1040
SWIDTH 591 0
DWIDTH 10 0
BBX 9 12 0 0
BITMAP
1C00
1C00
1C00
3600
3600
3600
6300
7F00
7F00
6300
C180
C180
ENDCHAR
STARTCHAR afii10018
ENCODING 1041
SWIDTH 589 0
DWIDTH 10 0
BBX 8 12 1 0
BITMAP
FE
FE
C0
C0
C0
FE
FF
C3
C3
C3
FF
FE
ENDCHAR
STARTCHAR afii10019
ENCODING 1042
SWIDTH 591 0
DWIDTH 10 0
BBX 8 12 1 0
BITMAP
FE
FF
C3
C3
C3
FE
FE
C3
C3
C3
FF
FE
ENDCHAR
STARTCHAR afii10020
ENCODING 1043
SWIDTH 493 0
DWIDTH 8 0
BBX 6 12 1 0
BITMAP
FC
FC
C0
C0
C0
C0
C0
C0
C0
C0
C0
C0
ENDCHAR
STARTCHAR afii10021
ENCODING 1044
SWIDTH 583 0
DWIDTH 10 0
BBX 10 15 0 -3
BITMAP
3F80
3F80
3180
3180
3180
3180
3180
3180
6180
6180
FFC0
FFC0
C0C0
C0C0
C0C0
ENDCHAR
STARTCHAR afii10022
ENCODING 1045
SWIDTH 546 0
DWIDTH 9 0
BBX 7 12 1 0
BITMAP
FE
FE
C0
C0
C0
FE
FE
C0
C0
C0
FE
FE
ENDCHAR
STARTCHAR afii10024
ENCODING 1046
SWIDTH 741 0
DWIDTH 13 0
BBX 12 12 0 0
BITMAP
E630
E670
3660
36C0
36C0
1F80
3FC0
36C0
76E0
6660
6660
C630
ENDCHAR
STARTCHAR afii10025
ENCODING 1047
SWIDTH 513 0
DWIDTH 9 0
BBX 8 12 0 0
BITMAP
3C
7F
E3
C3
03
0E
0F
03
43
E3
7E
3C
ENDCHAR
STARTCHAR afii10026
ENCODING 1048
SWIDTH 589 0
DWIDTH 10 0
BBX 8 12 1 0
BITMAP
C3
C7
C7
CF
CF
DB
DB
F3
F3
E3
E3
C3
ENDCHAR
STARTCHAR afii10027
ENCODING 1049
SWIDTH 589 0
DWIDTH 10 0
BBX 8 15 1 0
BITMAP
44
38
00
C3
C7
C7
CF
CF
DB
DB
F3
F3
E3
E3
C3
ENDCHAR
STARTCHAR afii10028
ENCODING 1050
SWIDTH 500 0
DWIDTH 9 0
BBX 8 12 1 0
BITMAP
C3
C7
CE
CC
CC
F8
F8
DC
CC
C6
C6
C3
ENDCHAR
STARTCHAR afii10029
ENCODING 1051
SWIDTH 576 0
DWIDTH 10 0
BBX 9 12 0 0
BITMAP
3F80
3F80
3180
3180
3180
3180
3180
3180
3180
3180
F180
E180
ENDCHAR
STARTCHAR afii10030
ENCODING 1052
SWIDTH 683 0
DWIDTH 13 0
BBX 11 12 1 0
BITMAP
F0E0
F1E0
F1E0
F1E0
D160
DB60
DB60
DB60
CA60
CE60
CE60
CE60
ENDCHAR
STARTCHAR afii10031
ENCODING 1053
SWIDTH 591 0
DWIDTH 10 0
BBX 8 12 1 0
BITMAP
C3
C3
C3
C3
C3
FF
FF
C3
C3
C3
C3
C3
ENDCHAR
STARTCHAR afii10032
ENCODING 1054
SWIDTH 638 0
DWIDTH 11 0
BBX 9 12 1 0
BITMAP
3E00
7F00
6300
C180
C180
C180
C180
C180
C180
6300
7F00
3E00
ENDCHAR
STARTCHAR afii10033
ENCODING 1055
SWIDTH 591 0
DWIDTH 10 0
BBX 8 12 1 0
BITMAP
FF
FF
C3
C3
C3
C3
C3
C3
C3
C3
C3
C3
ENDCHAR
STARTCHAR afii10034
ENCODING 1056
SWIDTH 546 0
DWIDTH 9 0
BBX 8 12 1 0
BITMAP
FE
FF
C3
C3
C3
FE
FC
C0
C0
C0
C0
C0
ENDCHAR
STARTCHAR afii10035
ENCODING 1057
SWIDTH 591 0
DWIDTH 10 0
BBX 9 12 1 0
BITMAP
1E00
7F00
6380
C100
C000
C000
C000
C100
C180
6380
7F00
1E00
ENDCHAR
STARTCHAR afii10036
ENCODING 1058
SWIDTH 500 0
DWIDTH 9 0
BBX 8 12 0 0
BITMAP
FF
FF
18
18
18
18
18
18
18
18
18
18
ENDCHAR
STARTCHAR afii10037
ENCODING 1059
SWIDTH 509 0
DWIDTH 9 0
BBX 9 12 0 0
BITMAP
C180
6300
6300
6300
3600
3600
1C00
1C00
1C00
1800
7800
7000
ENDCHAR
STARTCHAR afii10038
ENCODING 1060
SWIDTH 699 0
DWIDTH 12 0
BBX 10 12 1 0
BITMAP
0C00
3F00
7F80
EDC0
CCC0
CCC0
CCC0
CCC0
EDC0
7F80
3F00
0C00
ENDCHAR
STARTCHAR afii10039
ENCODING 1061
SWIDTH 546 0
DWIDTH 9 0
BBX 9 12 0 0
BITMAP
C180
6300
6300
3600
1C00
1C00
1C00
1C00
3600
6300
6300
C180
ENDCHAR
STARTCHAR afii10040
ENCODING 1062
SWIDTH 599 0
DWIDTH 10 0
BBX 9 15 1 -3
BITMAP
C300
C300
C300
C300
C300
C300
C300
C300
C300
C300
FF80
FF80
0180
0180
0180
ENDCHAR
STARTCHAR afii10041
ENCODING 1063
SWIDTH 576 0
DWIDTH 10 0
BBX 8 12 1 0
BITMAP
C3
C3
C3
C3
C3
C7
7F
3B
03
03
03
03
ENDCHAR
STARTCHAR afii10042
ENCODING 1064
SWIDTH 824 0
DWIDTH 14 0
BBX 12 12 1 0
BITMAP
C630
C630
C630
C630
C630
C630
C630
C630
C630
C630
FFF0
FFF0
ENDCHAR
STARTCHAR afii10043
ENCODING 1065
SWIDTH 835 0
DWIDTH 14 0
BBX 13 15 1 -3
BITMAP
C630
C630
C630
C630
C630
C630
C630
C630
C630
C630
FFF8
FFF8
0018
0018
0018
ENDCHAR
STARTCHAR afii10044
ENCODING 1066
SWIDTH 712 0
DWIDTH 12 0
BBX 11 12 0 0
BITMAP
F800
F800
1800
1800
1800
1FC0
1FC0
1860
1860
1860
1FE0
1FC0
ENDCHAR
STARTCHAR afii10045
ENCODING 1067
SWIDTH 817 0
DWIDTH 14 0
BBX 12 12 1 0
BITMAP
C030
C030
C030
C030
C030
FE30
FE30
C330
C330
C330
FF30
FE30
ENDCHAR
STARTCHAR afii10046
ENCODING 1068
SWIDTH 589 0
DWIDTH 10 0
BBX 8 12 1 0
BITMAP
C0
C0
C0
C0
C0
FE
FE
C3
C3
C3
FF
FE
ENDCHAR
STARTCHAR afii10047
ENCODING 1069
SWIDTH 583 0
DWIDTH 10 0
BBX 8 12 1 0
BITMAP
3C
7E
E6
C3
03
1F
1F
43
C3
E6
7E
3C
ENDCHAR
STARTCHAR afii10048
ENCODING 1070
SWIDTH 845 0
DWIDTH 14 0
BBX 12 12 1 0
BITMAP
C3C0
C7E0
C660
CC30
CC30
FC30
FC30
CC30
CC30
C660
C7E0
C3C0
ENDCHAR
STARTCHAR afii10049
ENCODING 1071
SWIDTH 591 0
DWIDTH 10 0
BBX 9 12 0 0
BITMAP
3F80
7F80
6180
6180
6180
7F80
1F80
3980
3180
6180
6180
C180
ENDCHAR
STARTCHAR afii10065
ENCODING 1072
SWIDTH 456 0
DWIDTH 8 0
BBX 6 9 1 0
BITMAP
78
FC
CC
1C
7C
CC
CC
FC
6C
ENDCHAR
STARTCHAR afii10066
ENCODING 1073
SWIDTH 506 0
DWIDTH 9 0
BBX 7 12 1 0
BITMAP
3E
7E
C0
B8
FC
EE
C6
C6
C6
EE
7C
38
ENDCHAR
STARTCHAR afii10067
ENCODING 1074
SWIDTH 503 0
DWIDTH 9 0
BBX 7 9 1 0
BITMAP
FC
FE
C6
FC
FE
C6
C6
FE
FC
ENDCHAR
STARTCHAR afii10068
ENCODING 1075
SWIDTH 341 0
DWIDTH 6 0
BBX 5 9 1 0
BITMAP
F8
F8
C0
C0
C0
C0
C0
C0
C0
ENDCHAR
STARTCHAR afii10069
ENCODING 1076
SWIDTH 520 0
DWIDTH 9 0
BBX 9 11 0 -2
BITMAP
3F00
3F00
3300
3300
3300
3300
6300
FF80
FF80
C180
C180
ENDCHAR
STARTCHAR afii10070
ENCODING 1077
SWIDTH 456 0
DWIDTH 8 0
BBX 6 9 1 0
BITMAP
78
FC
CC
FC
FC
C0
CC
FC
78
ENDCHAR
STARTCHAR afii10072
ENCODING 1078
SWIDTH 581 0
DWIDTH 10 0
BBX 10 9 0 0
BITMAP
CCC0
EDC0
6D80
3F00
3F00
3F00
6D80
6D80
CCC0
ENDCHAR
STARTCHAR afii10073
ENCODING 1079
SWIDTH 408 0
DWIDTH 7 0
BBX 6 9 0 0
BITMAP
78
FC
CC
0C
18
1C
CC
FC
78
ENDCHAR
STARTCHAR afii10074
ENCODING 1080
SWIDTH 503 0
DWIDTH 9 0
BBX 7 9 1 0
BITMAP
C6
CE
CE
DE
D6
F6
E6
E6
C6
ENDCHAR
STARTCHAR afii10075
ENCODING 1081
SWIDTH 500 0
DWIDTH 9 0
BBX 7 12 1 0
BITMAP
44
38
00
C6
CE
CE
DE
D6
F6
E6
E6
C6
ENDCHAR
STARTCHAR afii10076
ENCODING 1082
SWIDTH 410 0
DWIDTH 7 0
BBX 6 9 1 0
BITMAP
CC
CC
D8
D8
F0
F8
D8
D8
CC
ENDCHAR
STARTCHAR afii10077
ENCODING 1083
SWIDTH 520 0
DWIDTH 9 0
BBX 8 9 0 0
BITMAP
3F
3F
33
33
33
33
33
F3
E3
ENDCHAR
STARTCHAR afii10078
ENCODING 1084
SWIDTH 606 0
DWIDTH 10 0
BBX 9 9 1 0
BITMAP
C180
E380
E380
E380
D580
D580
DD80
C980
C980
ENDCHAR
STARTCHAR afii10079
ENCODING 1085
SWIDTH 495 0
DWIDTH 8 0
BBX 6 9 1 0
BITMAP
CC
CC
CC
FC
FC
CC
CC
CC
CC
ENDCHAR
STARTCHAR afii10080
ENCODING 1086
SWIDTH 500 0
DWIDTH 9 0
BBX 7 9 1 0
BITMAP
38
7C
EE
C6
C6
C6
EE
7C
38
ENDCHAR
STARTCHAR afii10081
ENCODING 1087
SWIDTH 495 0
DWIDTH 8 0
BBX 6 9 1 0
BITMAP
FC
FC
CC
CC
CC
CC
CC
CC
CC
ENDCHAR
STARTCHAR afii10082
ENCODING 1088
SWIDTH 500 0
DWIDTH 9 0
BBX 7 12 1 -3
BITMAP
D8
FC
EE
C6
C6
C6
E6
FC
D8
C0
C0
C0
ENDCHAR
STARTCHAR afii10083
ENCODING 1089
SWIDTH 456 0
DWIDTH 8 0
BBX 6 9 1 0
BITMAP
38
7C
CC
C0
C0
C0
CC
7C
38
ENDCHAR
STARTCHAR afii10084
ENCODING 1090
SWIDTH 401 0
DWIDTH 7 0
BBX 6 9 0 0
BITMAP
FC
FC
30
30
30
30
30
30
30
ENDCHAR
STARTCHAR afii10085
ENCODING 1091
SWIDTH 456 0
DWIDTH 8 0
BBX 8 12 0 -3
BITMAP
C3
C3
66
66
66
3C
3C
3C
18
18
F0
E0
ENDCHAR
STARTCHAR afii10086
ENCODING 1092
SWIDTH 716 0
DWIDTH 12 0
BBX 10 15 1 -3
BITMAP
0C00
0C00
0C00
6D80
7F80
CCC0
CCC0
CCC0
CCC0
CCC0
7F80
6D80
0C00
0C00
0C00
ENDCHAR
STARTCHAR afii10087
ENCODING 1093
SWIDTH 456 0
DWIDTH 8 0
BBX 8 9 0 0
BITMAP
C3
66
3C
3C
18
3C
3C
66
C3
ENDCHAR
STARTCHAR afii10088
ENCODING 1094
SWIDTH 503 0
DWIDTH 9 0
BBX 7 11 1 -2
BITMAP
CC
CC
CC
CC
CC
CC
CC
FE
FE
06
06
ENDCHAR
STARTCHAR afii10089
ENCODING 1095
SWIDTH 476 0
DWIDTH 8 0
BBX 6 9 1 0
BITMAP
CC
CC
CC
CC
FC
7C
0C
0C
0C
ENDCHAR
STARTCHAR afii10090
ENCODING 1096
SWIDTH 683 0
DWIDTH 12 0
BBX 10 9 1 0
BITMAP
CCC0
CCC0
CCC0
CCC0
CCC0
CCC0
CCC0
FFC0
FFC0
ENDCHAR
STARTCHAR afii10091
ENCODING 1097
SWIDTH 691 0
DWIDTH 12 0
BBX 11 11 1 -2
BITMAP
CCC0
CCC0
CCC0
CCC0
CCC0
CCC0
CCC0
FFE0
FFE0
0060
0060
ENDCHAR
STARTCHAR afii10092
ENCODING 1098
SWIDTH 598 0
DWIDTH 10 0
BBX 9 9 0 0
BITMAP
F800
F800
1800
1800
1F00
1F80
1980
1F80
1F00
ENDCHAR
STARTCHAR afii10093
ENCODING 1099
SWIDTH 731 0
DWIDTH 12 0
BBX 10 9 1 0
BITMAP
C0C0
C0C0
C0C0
C0C0
FCC0
FEC0
C6C0
FEC0
FCC0
ENDCHAR
STARTCHAR afii10094
ENCODING 1100
SWIDTH 503 0
DWIDTH 9 0
BBX 7 9 1 0
BITMAP
C0
C0
C0
C0
FC
FE
C6
FE
FC
ENDCHAR
STARTCHAR afii10095
ENCODING 1101
SWIDTH 453 0
DWIDTH 8 0
BBX 6 9 1 0
BITMAP
78
F8
CC
1C
1C
0C
CC
F8
70
ENDCHAR
STARTCHAR afii10096
ENCODING 1102
SWIDTH 700 0
DWIDTH 12 0
BBX 10 9 1 0
BITMAP
C700
CF80
D8C0
D8C0
F8C0
F8C0
D8C0
CF80
CF00
ENDCHAR
STARTCHAR afii10097
ENCODING 1103
SWIDTH 478 0
DWIDTH 8 0
BBX 7 9 0 0
BITMAP
3E
7E
66
66
7E
3E
36
66
C6
ENDCHAR
STARTCHAR afii10071
ENCODING 1105
SWIDTH 456 0
DWIDTH 8 0
BBX 6 12 1 0
BITMAP
6C
6C
00
78
FC
CC
FC
FC
C0
CC
FC
78
ENDCHAR
STARTCHAR afii10099
ENCODING 1106
SWIDTH 500 0
DWIDTH 9 0
BBX 8 15 0 -3
BITMAP
60
F8
60
6E
7F
73
63
63
63
63
63
63
03
0F
0E
ENDCHAR
STARTCHAR afii10100
ENCODING 1107
SWIDTH 341 0
DWIDTH 6 0
BBX 5 12 1 0
BITMAP
60
C0
00
F8
F8
C0
C0
C0
C0
C0
C0
C0
ENDCHAR
STARTCHAR afii10101
ENCODING 1108
SWIDTH 453 0
DWIDTH 8 0
BBX 6 9 1 0
BITMAP
78
FC
CC
F0
F0
C0
CC
FC
78
ENDCHAR
STARTCHAR afii10102
ENCODING 1109
SWIDTH 456 0
DWIDTH 8 0
BBX 6 9 1 0
BITMAP
78
FC
CC
E0
78
1C
CC
FC
78
ENDCHAR
STARTCHAR afii10103
ENCODING 1110
SWIDTH 228 0
DWIDTH 4 0
BBX 2 12 1 0
BITMAP
C0
C0
00
C0
C0
C0
C0
C0
C0
C0
C0
C0
ENDCHAR
STARTCHAR afii10104
ENCODING 1111
SWIDTH 228 0
DWIDTH 4 0
BBX 5 12 -1 0
BITMAP
D8
D8
00
30
30
30
30
30
30
30
30
30
ENDCHAR
STARTCHAR afii10105
ENCODING 1112
SWIDTH 228 0
DWIDTH 4 0
BBX 4 15 -1 -3
BITMAP
30
30
00
30
30
30
30
30
30
30
30
30
30
F0
E0
ENDCHAR
STARTCHAR afii10106
ENCODING 1113
SWIDTH 794 0
DWIDTH 14 0
BBX 13 9 0 0
BITMAP
3F00
3F00
3300
3300
33F0
33F8
3318
F3F8
E3F0
ENDCHAR
STARTCHAR afii10107
ENCODING 1114
SWIDTH 743 0
DWIDTH 13 0
BBX 11 9 1 0
BITMAP
CC00
CC00
CC00
FFC0
FFE0
CC60
CC60
CFE0
CFC0
ENDCHAR
STARTCHAR afii10108
ENCODING 1115
SWIDTH 500 0
DWIDTH 9 0
BBX 8 12 0 0
BITMAP
60
FC
60
6E
7F
73
63
63
63
63
63
63
ENDCHAR
STARTCHAR afii10109
ENCODING 1116
SWIDTH 410 0
DWIDTH 7 0
BBX 6 12 0 0
BITMAP
30
60
00
CC
CC
D8
D8
F0
F8
D8
D8
CC
ENDCHAR
STARTCHAR afii10110
ENCODING 1118
SWIDTH 456 0
DWIDTH 8 0
BBX 8 15 0 -3
BITMAP
44
38
00
C3
C3
66
66
66
3C
3C
3C
18
18
F0
E0
ENDCHAR
STARTCHAR afii10193
ENCODING 1119
SWIDTH 495 0
DWIDTH 8 0
BBX 6 12 1 -3
BITMAP
CC
CC
CC
CC
CC
CC
CC
FC
FC
30
30
30
ENDCHAR
STARTCHAR afii10050
ENCODING 1168
SWIDTH 453 0
DWIDTH 8 0
BBX 7 15 1 0
BITMAP
06
06
06
FE
FE
C0
C0
C0
C0
C0
C0
C0
C0
C0
C0
ENDCHAR
STARTCHAR afii10098
ENCODING 1169
SWIDTH 341 0
DWIDTH 6 0
BBX 5 11 1 0
BITMAP
18
18
F8
F8
C0
C0
C0
C0
C0
C0
C0
ENDCHAR
STARTCHAR Wgrave
ENCODING 7808
SWIDTH 773 0
DWIDTH 13 0
BBX 13 15 0 0
BITMAP
0600
0300
0000
C718
C718
C718
6530
6DB0
6DB0
6DB0
6DB0
28A0
38E0
38E0
38E0
ENDCHAR
STARTCHAR wgrave
ENCODING 7809
SWIDTH 638 0
DWIDTH 11 0
BBX 11 12 0 0
BITMAP
0C00
0600
0000
CE60
CE60
6EC0
6AC0
6AC0
2A80
3B80
3B80
3B80
ENDCHAR
STARTCHAR Wacute
ENCODING 7810
SWIDTH 773 0
DWIDTH 13 0
BBX 13 15 0 0
BITMAP
0600
0C00
0000
C718
C718
C718
6530
6DB0
6DB0
6DB0
6DB0
28A0
38E0
38E0
38E0
ENDCHAR
STARTCHAR wacute
ENCODING 7811
SWIDTH 638 0
DWIDTH 11 0
BBX 11 12 0 0
BITMAP
0C00
1800
0000
CE60
CE60
6EC0
6AC0
6AC0
2A80
3B80
3B80
3B80
ENDCHAR
STARTCHAR Wdieresis
ENCODING 7812
SWIDTH 773 0
DWIDTH 13 0
BBX 13 15 0 0
BITMAP
0D80
0D80
0000
C718
C718
C718
6530
6DB0
6DB0
6DB0
6DB0
28A0
38E0
38E0
38E0
ENDCHAR
STARTCHAR wdieresis
ENCODING 7813
SWIDTH 638 0
DWIDTH 11 0
BBX 11 12 0 0
BITMAP
1B00
1B00
0000
CE60
CE60
6EC0
6AC0
6AC0
2A80
3B80
3B80
3B80
ENDCHAR
STARTCHAR Ygrave
ENCODING 7922
SWIDTH 546 0
DWIDTH 8 0
BBX 8 15 0 0
BITMAP
18
0C
00
C3
66
66
3C
3C
3C
18
18
18
18
18
18
ENDCHAR
STARTCHAR ygrave
ENCODING 7923
SWIDTH 456 0
DWIDTH 8 0
BBX 8 15 0 -3
BITMAP
18
0C
00
C3
C3
66
66
66
3C
3C
3C
18
18
F0
E0
ENDCHAR
STARTCHAR endash
ENCODING 8211
SWIDTH 456 0
DWIDTH 8 0
BBX 8 2 0 4
BITMAP
FF
FF
ENDCHAR
STARTCHAR emdash
ENCODING 8212
SWIDTH 819 0
DWIDTH 14 0
BBX 14 2 0 4
BITMAP
FFFC
FFFC
ENDCHAR
STARTCHAR afii00208
ENCODING 8213
SWIDTH 819 0
DWIDTH 14 0
BBX 10 2 2 4
BITMAP
FFC0
FFC0
ENDCHAR
STARTCHAR underscoredbl
ENCODING 8215
SWIDTH 500 0
DWIDTH 9 0
BBX 9 2 0 -4
BITMAP
FF00
FF80
ENDCHAR
STARTCHAR quoteleft
ENCODING 8216
SWIDTH 228 0
DWIDTH 4 0
BBX 2 5 1 7
BITMAP
40
80
80
C0
C0
ENDCHAR
STARTCHAR quoteright
ENCODING 8217
SWIDTH 228 0
DWIDTH 4 0
BBX 2 5 1 7
BITMAP
C0
C0
40
40
80
ENDCHAR
STARTCHAR quotesinglbase
ENCODING 8218
SWIDTH 228 0
DWIDTH 4 0
BBX 2 5 1 -3
BITMAP
C0
C0
40
40
80
ENDCHAR
STARTCHAR quotereversed
ENCODING 8219
SWIDTH 228 0
DWIDTH 4 0
BBX 2 5 1 7
BITMAP
C0
C0
80
80
40
ENDCHAR
STARTCHAR quotedblleft
ENCODING 8220
SWIDTH 410 0
DWIDTH 7 0
BBX 5 5 1 7
BITMAP
48
90
90
D8
D8
ENDCHAR
STARTCHAR quotedblright
ENCODING 8221
SWIDTH 410 0
DWIDTH 7 0
BBX 5 5 1 7
BITMAP
D8
D8
48
48
90
ENDCHAR
STARTCHAR quotedblbase
ENCODING 8222
SWIDTH 410 0
DWIDTH 7 0
BBX 5 5 1 -3
BITMAP
D8
D8
48
48
90
ENDCHAR
STARTCHAR dagger
ENCODING 8224
SWIDTH 456 0
DWIDTH 8 0
BBX 6 15 1 -3
BITMAP
30
30
30
FC
FC
30
30
30
30
30
30
30
30
30
30
ENDCHAR
STARTCHAR daggerdbl
ENCODING 8225
SWIDTH 456 0
DWIDTH 8 0
BBX 6 15 1 -3
BITMAP
30
30
30
FC
FC
30
30
30
30
30
FC
FC
30
30
30
ENDCHAR
STARTCHAR bullet
ENCODING 8226
SWIDTH 287 0
DWIDTH 5 0
BBX 4 5 0 3
BITMAP
60
F0
F0
F0
60
ENDCHAR
STARTCHAR ellipsis
ENCODING 8230
SWIDTH 819 0
DWIDTH 14 0
BBX 12 2 1 0
BITMAP
C630
C630
ENDCHAR
STARTCHAR perthousand
ENCODING 8240
SWIDTH 819 0
DWIDTH 14 0
BBX 14 12 0 0
BITMAP
6200
9600
9400
9400
9C00
6800
0B18
1CA4
14A4
14A4
34A4
2318
ENDCHAR
STARTCHAR minute
ENCODING 8242
SWIDTH 194 0
DWIDTH 3 0
BBX 2 4 0 8
BITMAP
C0
C0
C0
C0
ENDCHAR
STARTCHAR second
ENCODING 8243
SWIDTH 389 0
DWIDTH 7 0
BBX 5 4 1 8
BITMAP
D8
D8
D8
D8
ENDCHAR
STARTCHAR guilsinglleft
ENCODING 8249
SWIDTH 272 0
DWIDTH 5 0
BBX 4 7 1 1
BITMAP
30
60
60
C0
60
60
30
ENDCHAR
STARTCHAR guilsinglright
ENCODING 8250
SWIDTH 272 0
DWIDTH 5 0
BBX 4 7 1 1
BITMAP
C0
60
60
30
60
60
C0
ENDCHAR
STARTCHAR exclamdbl
ENCODING 8252
SWIDTH 545 0
DWIDTH 9 0
BBX 6 12 1 0
BITMAP
CC
CC
CC
CC
CC
CC
CC
CC
CC
00
CC
CC
ENDCHAR
STARTCHAR radicalex
ENCODING 8254
SWIDTH 272 0
DWIDTH 5 0
BBX 5 2 0 10
BITMAP
F8
F8
ENDCHAR
STARTCHAR fraction
ENCODING 8260
SWIDTH 137 0
DWIDTH 2 0
BBX 6 12 -2 0
BITMAP
04
08
08
08
10
10
20
20
40
40
40
80
ENDCHAR
STARTCHAR nsuperior
ENCODING 8319
SWIDTH 325 0
DWIDTH 6 0
BBX 5 5 0 7
BITMAP
F8
D8
D8
D8
D8
ENDCHAR
STARTCHAR franc
ENCODING 8355
SWIDTH 503 0
DWIDTH 9 0
BBX 8 12 0 0
BITMAP
7F
7F
60
60
60
7E
7E
60
F8
F8
60
60
ENDCHAR
STARTCHAR afii08941
ENCODING 8356
SWIDTH 456 0
DWIDTH 8 0
BBX 8 12 0 0
BITMAP
1C
7E
67
63
FC
30
FC
30
60
F9
FF
8F
ENDCHAR
STARTCHAR peseta
ENCODING 8359
SWIDTH 960 0
DWIDTH 16 0
BBX 14 12 1 0
BITMAP
F300
FB00
DB00
DFF8
DFFC
DB6C
FB70
F338
C31C
C36C
C3FC
C3B8
ENDCHAR
STARTCHAR Euro
ENCODING 8364
SWIDTH 456 0
DWIDTH 8 0
BBX 7 12 0 0
BITMAP
1C
3E
32
60
FC
60
FC
60
60
32
3E
1C
ENDCHAR
STARTCHAR afii61248
ENCODING 8453
SWIDTH 789 0
DWIDTH 13 0
BBX 12 12 1 0
BITMAP
7040
8880
8080
8900
8900
7200
02E0
0510
0510
0910
0910
10E0
ENDCHAR
STARTCHAR afii61289
ENCODING 8467
SWIDTH 490 0
DWIDTH 8 0
BBX 7 12 1 0
BITMAP
1C
3E
66
66
6C
78
70
E0
E0
62
3E
1C
ENDCHAR
STARTCHAR afii61352
ENCODING 8470
SWIDTH 914 0
DWIDTH 16 0
BBX 14 12 1 0
BITMAP
C300
E300
E338
F37C
F36C
DB6C
DB6C
CF7C
CF38
C77C
C77C
C300
ENDCHAR
STARTCHAR trademark
ENCODING 8482
SWIDTH 819 0
DWIDTH 14 0
BBX 11 7 1 5
BITMAP
FB60
2360
2360
2360
22A0
22A0
22A0
ENDCHAR
STARTCHAR glyph526
ENCODING 8486
SWIDTH 768 0
DWIDTH 13 0
BBX 12 12 0 0
BITMAP
1F80
3FC0
70E0
E070
C030
C030
C030
C030
6060
6040
F0F0
F0F0
ENDCHAR
STARTCHAR estimated
ENCODING 8494
SWIDTH 600 0
DWIDTH 10 0
BBX 8 9 1 0
BITMAP
3C
42
C3
C3
FF
C0
C2
44
38
ENDCHAR
STARTCHAR oneeighth
ENCODING 8539
SWIDTH 684 0
DWIDTH 12 0
BBX 10 12 1 0
BITMAP
4200
C400
4400
4400
4800
4800
1180
1240
2180
2240
2240
4180
ENDCHAR
STARTCHAR threeeighths
ENCODING 8540
SWIDTH 684 0
DWIDTH 12 0
BBX 11 12 0 0
BITMAP
6080
9100
2100
1100
9200
6200
04C0
0520
08C0
0920
0920
10C0
ENDCHAR
STARTCHAR fiveeighths
ENCODING 8541
SWIDTH 684 0
DWIDTH 12 0
BBX 11 12 0 0
BITMAP
7080
8100
E100
1100
9200
6200
04C0
0520
08C0
0920
0920
10C0
ENDCHAR
STARTCHAR seveneighths
ENCODING 8542
SWIDTH 684 0
DWIDTH 12 0
BBX 10 12 1 0
BITMAP
F200
1400
2400
4400
4800
4800
1180
1240
2180
2240
2240
4180
ENDCHAR
STARTCHAR arrowleft
ENCODING 8592
SWIDTH 1000 0
DWIDTH 17 0
BBX 15 6 1 1
BITMAP
2000
6000
FFFE
4000
2000
1000
ENDCHAR
STARTCHAR arrowup
ENCODING 8593
SWIDTH 500 0
DWIDTH 9 0
BBX 6 15 1 -4
BITMAP
10
30
78
94
10
10
10
10
10
10
10
10
10
10
10
ENDCHAR
STARTCHAR arrowright
ENCODING 8594
SWIDTH 1000 0
DWIDTH 17 0
BBX 15 6 1 1
BITMAP
0008
000C
FFFE
0004
0008
0010
ENDCHAR
STARTCHAR arrowdown
ENCODING 8595
SWIDTH 500 0
DWIDTH 9 0
BBX 5 14 2 -3
BITMAP
20
20
20
20
20
20
20
20
20
20
20
B8
70
60
ENDCHAR
STARTCHAR arrowboth
ENCODING 8596
SWIDTH 1000 0
DWIDTH 17 0
BBX 15 6 1 1
BITMAP
2008
600C
FFFE
4004
2008
1010
ENDCHAR
STARTCHAR arrowupdn
ENCODING 8597
SWIDTH 500 0
DWIDTH 9 0
BBX 6 15 1 -3
BITMAP
10
30
78
94
10
10
10
10
10
10
10
10
5C
38
30
ENDCHAR
STARTCHAR arrowupdnbse
ENCODING 8616
SWIDTH 500 0
DWIDTH 9 0
BBX 6 17 1 -5
BITMAP
10
30
78
94
10
10
10
10
10
10
10
10
5C
38
30
00
FC
ENDCHAR
STARTCHAR partialdiff
ENCODING 8706
SWIDTH 494 0
DWIDTH 8 0
BBX 7 12 0 0
BITMAP
1C
3E
22
02
1E
7E
62
C2
C4
CC
F8
70
ENDCHAR
STARTCHAR increment
ENCODING 8710
SWIDTH 611 0
DWIDTH 10 0
BBX 10 12 0 0
BITMAP
0400
0400
0C00
0E00
1200
1300
2300
2100
4180
4180
8080
FFC0
ENDCHAR
STARTCHAR product
ENCODING 8719
SWIDTH 823 0
DWIDTH 14 0
BBX 12 15 1 -3
BITMAP
FFF0
FFF0
C030
C030
C030
C030
C030
C030
C030
C030
C030
C030
C030
C030
C030
ENDCHAR
STARTCHAR summation
ENCODING 8721
SWIDTH 712 0
DWIDTH 12 0
BBX 10 15 1 -3
BITMAP
FFC0
FFC0
C000
6000
3000
1800
0C00
0600
0C00
1800
3000
6000
C000
FFC0
FFC0
ENDCHAR
STARTCHAR minus
ENCODING 8722
SWIDTH 479 0
DWIDTH 8 0
BBX 6 2 1 5
BITMAP
FC
FC
ENDCHAR
STARTCHAR fraction.dup3
ENCODING 8725
SWIDTH 137 0
DWIDTH 2 0
BBX 6 12 -2 0
BITMAP
04
08
08
08
10
10
20
20
40
40
40
80
ENDCHAR
STARTCHAR periodcentered
ENCODING 8729
SWIDTH 228 0
DWIDTH 4 0
BBX 2 2 1 5
BITMAP
C0
C0
ENDCHAR
STARTCHAR radical
ENCODING 8730
SWIDTH 548 0
DWIDTH 9 0
BBX 8 17 1 -1
BITMAP
01
01
01
03
02
02
02
42
A2
22
14
14
14
0C
0C
04
04
ENDCHAR
STARTCHAR infinity
ENCODING 8734
SWIDTH 712 0
DWIDTH 12 0
BBX 10 6 1 3
BITMAP
6380
9440
8840
8C40
9440
6380
ENDCHAR
STARTCHAR orthogonal
ENCODING 8735
SWIDTH 979 0
DWIDTH 17 0
BBX 11 11 3 0
BITMAP
8000
8000
8000
8000
8000
8000
8000
8000
8000
8000
FFE0
ENDCHAR
STARTCHAR intersection
ENCODING 8745
SWIDTH 722 0
DWIDTH 12 0
BBX 9 11 2 0
BITMAP
7E00
8100
8100
8080
8080
8080
8080
8080
8080
8080
8080
ENDCHAR
STARTCHAR integral
ENCODING 8747
SWIDTH 273 0
DWIDTH 5 0
BBX 5 16 0 -1
BITMAP
18
20
20
20
20
20
20
20
20
20
20
20
20
20
20
C0
ENDCHAR
STARTCHAR approxequal
ENCODING 8776
SWIDTH 548 0
DWIDTH 9 0
BBX 8 7 0 3
BITMAP
71
FF
8E
00
71
FF
8E
ENDCHAR
STARTCHAR notequal
ENCODING 8800
SWIDTH 548 0
DWIDTH 9 0
BBX 9 12 0 0
BITMAP
0300
0600
0600
FF80
FF80
0C00
1800
FF80
FF80
3000
3000
6000
ENDCHAR
STARTCHAR equivalence
ENCODING 8801
SWIDTH 478 0
DWIDTH 8 0
BBX 7 10 0 1
BITMAP
FE
FE
00
00
FE
FE
00
00
FE
FE
ENDCHAR
STARTCHAR lessequal
ENCODING 8804
SWIDTH 548 0
DWIDTH 9 0
BBX 8 12 0 0
BITMAP
01
07
3E
F8
C0
F8
3E
07
01
00
FF
FF
ENDCHAR
STARTCHAR greaterequal
ENCODING 8805
SWIDTH 548 0
DWIDTH 9 0
BBX 8 12 0 0
BITMAP
80
E0
7C
1F
03
1F
7C
E0
80
00
FF
FF
ENDCHAR
STARTCHAR house
ENCODING 8962
SWIDTH 600 0
DWIDTH 10 0
BBX 8 9 1 0
BITMAP
18
24
42
81
81
81
81
81
FF
ENDCHAR
STARTCHAR revlogicalnot
ENCODING 8976
SWIDTH 479 0
DWIDTH 8 0
BBX 6 6 1 3
BITMAP
FC
FC
C0
C0
C0
C0
ENDCHAR
STARTCHAR integraltp
ENCODING 8992
SWIDTH 604 0
DWIDTH 10 0
BBX 3 18 5 -4
BITMAP
E0
80
80
80
80
80
80
80
80
80
80
80
80
80
80
80
80
80
ENDCHAR
STARTCHAR integralbt
ENCODING 8993
SWIDTH 604 0
DWIDTH 10 0
BBX 4 18 2 -4
BITMAP
10
10
10
10
10
10
10
10
10
10
10
10
10
10
10
10
20
E0
ENDCHAR
STARTCHAR SF100000
ENCODING 9472
SWIDTH 708 0
DWIDTH 12 0
BBX 12 2 0 4
BITMAP
FFF0
FFF0
ENDCHAR
STARTCHAR SF110000
ENCODING 9474
SWIDTH 615 0
DWIDTH 10 0
BBX 1 20 4 -5
BITMAP
80
80
80
80
80
80
80
80
80
80
80
80
80
80
80
80
80
80
80
80
ENDCHAR
STARTCHAR SF010000
ENCODING 9484
SWIDTH 708 0
DWIDTH 12 0
BBX 7 11 5 -5
BITMAP
FE
FE
C0
C0
C0
C0
C0
C0
C0
C0
C0
ENDCHAR
STARTCHAR SF030000
ENCODING 9488
SWIDTH 708 0
DWIDTH 12 0
BBX 7 11 0 -5
BITMAP
FE
FE
06
06
06
06
06
06
06
06
06
ENDCHAR
STARTCHAR SF020000
ENCODING 9492
SWIDTH 708 0
DWIDTH 12 0
BBX 7 11 5 4
BITMAP
C0
C0
C0
C0
C0
C0
C0
C0
C0
FE
FE
ENDCHAR
STARTCHAR SF040000
ENCODING 9496
SWIDTH 708 0
DWIDTH 12 0
BBX 7 11 0 4
BITMAP
06
06
06
06
06
06
06
06
06
FE
FE
ENDCHAR
STARTCHAR SF080000
ENCODING 9500
SWIDTH 708 0
DWIDTH 12 0
BBX 7 20 5 -5
BITMAP
C0
C0
C0
C0
C0
C0
C0
C0
C0
FE
FE
C0
C0
C0
C0
C0
C0
C0
C0
C0
ENDCHAR
STARTCHAR SF090000
ENCODING 9508
SWIDTH 708 0
DWIDTH 12 0
BBX 7 20 0 -5
BITMAP
06
06
06
06
06
06
06
06
06
FE
FE
06
06
06
06
06
06
06
06
06
ENDCHAR
STARTCHAR SF060000
ENCODING 9516
SWIDTH 708 0
DWIDTH 12 0
BBX 12 11 0 -5
BITMAP
FFF0
FFF0
0600
0600
0600
0600
0600
0600
0600
0600
0600
ENDCHAR
STARTCHAR SF070000
ENCODING 9524
SWIDTH 708 0
DWIDTH 12 0
BBX 12 11 0 4
BITMAP
0600
0600
0600
0600
0600
0600
0600
0600
0600
FFF0
FFF0
ENDCHAR
STARTCHAR SF050000
ENCODING 9532
SWIDTH 708 0
DWIDTH 12 0
BBX 12 20 0 -5
BITMAP
0600
0600
0600
0600
0600
0600
0600
0600
0600
FFF0
FFF0
0600
0600
0600
0600
0600
0600
0600
0600
0600
ENDCHAR
STARTCHAR SF430000
ENCODING 9552
SWIDTH 708 0
DWIDTH 12 0
BBX 12 4 0 3
BITMAP
FFF0
0000
0000
FFF0
ENDCHAR
STARTCHAR SF240000
ENCODING 9553
SWIDTH 708 0
DWIDTH 12 0
BBX 5 20 0 -5
BITMAP
98
98
98
98
98
98
98
98
98
98
98
98
98
98
98
98
98
98
98
98
ENDCHAR
STARTCHAR SF510000
ENCODING 9554
SWIDTH 708 0
DWIDTH 12 0
BBX 7 12 0 -5
BITMAP
FE
80
80
FE
80
80
80
80
80
80
80
80
ENDCHAR
STARTCHAR SF520000
ENCODING 9555
SWIDTH 708 0
DWIDTH 12 0
BBX 9 11 0 -5
BITMAP
FF80
FF80
9800
9800
9800
9800
9800
9800
9800
9800
9800
ENDCHAR
STARTCHAR SF390000
ENCODING 9556
SWIDTH 708 0
DWIDTH 12 0
BBX 9 12 0 -5
BITMAP
FF80
8000
8000
9F80
9800
9800
9800
9800
9800
9800
9800
9800
ENDCHAR
STARTCHAR SF220000
ENCODING 9557
SWIDTH 708 0
DWIDTH 12 0
BBX 7 12 0 -5
BITMAP
FE
06
06
FE
06
06
06
06
06
06
06
06
ENDCHAR
STARTCHAR SF210000
ENCODING 9558
SWIDTH 708 0
DWIDTH 12 0
BBX 9 11 0 -5
BITMAP
FF80
FF80
0980
0980
0980
0980
0980
0980
0980
0980
0980
ENDCHAR
STARTCHAR SF250000
ENCODING 9559
SWIDTH 708 0
DWIDTH 12 0
BBX 9 12 0 -5
BITMAP
FF80
0180
0180
F980
0980
0980
0980
0980
0980
0980
0980
0980
ENDCHAR
STARTCHAR SF500000
ENCODING 9560
SWIDTH 708 0
DWIDTH 12 0
BBX 7 12 0 3
BITMAP
80
80
80
80
80
80
80
80
FE
80
80
FE
ENDCHAR
STARTCHAR SF490000
ENCODING 9561
SWIDTH 708 0
DWIDTH 12 0
BBX 9 11 0 4
BITMAP
9800
9800
9800
9800
9800
9800
9800
9800
9800
FF80
FF80
ENDCHAR
STARTCHAR SF380000
ENCODING 9562
SWIDTH 708 0
DWIDTH 12 0
BBX 9 12 0 3
BITMAP
9800
9800
9800
9800
9800
9800
9800
9800
9F80
8000
8000
FF80
ENDCHAR
STARTCHAR SF280000
ENCODING 9563
SWIDTH 708 0
DWIDTH 12 0
BBX 7 12 0 3
BITMAP
06
06
06
06
06
06
06
06
FE
06
06
FE
ENDCHAR
STARTCHAR SF270000
ENCODING 9564
SWIDTH 708 0
DWIDTH 12 0
BBX 9 11 0 4
BITMAP
0980
0980
0980
0980
0980
0980
0980
0980
0980
FF80
FF80
ENDCHAR
STARTCHAR SF260000
ENCODING 9565
SWIDTH 708 0
DWIDTH 12 0
BBX 9 12 0 3
BITMAP
0980
0980
0980
0980
0980
0980
0980
0980
F980
0180
0180
FF80
ENDCHAR
STARTCHAR SF360000
ENCODING 9566
SWIDTH 708 0
DWIDTH 12 0
BBX 7 20 0 -5
BITMAP
80
80
80
80
80
80
80
80
FE
80
80
FE
80
80
80
80
80
80
80
80
ENDCHAR
STARTCHAR SF370000
ENCODING 9567
SWIDTH 708 0
DWIDTH 12 0
BBX 9 20 0 -5
BITMAP
9800
9800
9800
9800
9800
9800
9800
9800
9800
9F80
9F80
9800
9800
9800
9800
9800
9800
9800
9800
9800
ENDCHAR
STARTCHAR SF420000
ENCODING 9568
SWIDTH 708 0
DWIDTH 12 0
BBX 9 20 0 -5
BITMAP
9800
9800
9800
9800
9800
9800
9800
9800
9F80
8000
8000
9F80
9800
9800
9800
9800
9800
9800
9800
9800
ENDCHAR
STARTCHAR SF190000
ENCODING 9569
SWIDTH 708 0
DWIDTH 12 0
BBX 7 20 0 -5
BITMAP
06
06
06
06
06
06
06
06
FE
06
06
FE
06
06
06
06
06
06
06
06
ENDCHAR
STARTCHAR SF200000
ENCODING 9570
SWIDTH 708 0
DWIDTH 12 0
BBX 9 20 0 -5
BITMAP
0980
0980
0980
0980
0980
0980
0980
0980
0980
F980
F980
0980
0980
0980
0980
0980
0980
0980
0980
0980
ENDCHAR
STARTCHAR SF230000
ENCODING 9571
SWIDTH 708 0
DWIDTH 12 0
BBX 9 20 0 -5
BITMAP
0980
0980
0980
0980
0980
0980
0980
0980
F980
0180
0180
F980
0980
0980
0980
0980
0980
0980
0980
0980
ENDCHAR
STARTCHAR SF470000
ENCODING 9572
SWIDTH 708 0
DWIDTH 12 0
BBX 12 12 0 -5
BITMAP
FFF0
0000
0000
FFF0
0600
0600
0600
0600
0600
0600
0600
0600
ENDCHAR
STARTCHAR SF480000
ENCODING 9573
SWIDTH 708 0
DWIDTH 12 0
BBX 12 11 0 -5
BITMAP
FFF0
FFF0
0980
0980
0980
0980
0980
0980
0980
0980
0980
ENDCHAR
STARTCHAR SF410000
ENCODING 9574
SWIDTH 708 0
DWIDTH 12 0
BBX 12 12 0 -5
BITMAP
FFF0
0000
0000
F9F0
0980
0980
0980
0980
0980
0980
0980
0980
ENDCHAR
STARTCHAR SF450000
ENCODING 9575
SWIDTH 708 0
DWIDTH 12 0
BBX 12 12 0 3
BITMAP
0600
0600
0600
0600
0600
0600
0600
0600
FFF0
0000
0000
FFF0
ENDCHAR
STARTCHAR SF460000
ENCODING 9576
SWIDTH 708 0
DWIDTH 12 0
BBX 12 11 0 4
BITMAP
0980
0980
0980
0980
0980
0980
0980
0980
0980
FFF0
FFF0
ENDCHAR
STARTCHAR SF400000
ENCODING 9577
SWIDTH 708 0
DWIDTH 12 0
BBX 12 12 0 3
BITMAP
0980
0980
0980
0980
0980
0980
0980
0980
F9F0
0000
0000
FFF0
ENDCHAR
STARTCHAR SF540000
ENCODING 9578
SWIDTH 708 0
DWIDTH 12 0
BBX 12 20 0 -5
BITMAP
0600
0600
0600
0600
0600
0600
0600
0600
FFF0
0600
0600
FFF0
0600
0600
0600
0600
0600
0600
0600
0600
ENDCHAR
STARTCHAR SF530000
ENCODING 9579
SWIDTH 708 0
DWIDTH 12 0
BBX 12 20 0 -5
BITMAP
0980
0980
0980
0980
0980
0980
0980
0980
0980
FFF0
FFF0
0980
0980
0980
0980
0980
0980
0980
0980
0980
ENDCHAR
STARTCHAR SF440000
ENCODING 9580
SWIDTH 708 0
DWIDTH 12 0
BBX 12 20 0 -5
BITMAP
0980
0980
0980
0980
0980
0980
0980
0980
F9F0
0000
0000
F9F0
0980
0980
0980
0980
0980
0980
0980
0980
ENDCHAR
STARTCHAR upblock
ENCODING 9600
SWIDTH 708 0
DWIDTH 12 0
BBX 12 10 0 5
BITMAP
FFF0
FFF0
FFF0
FFF0
FFF0
FFF0
FFF0
FFF0
FFF0
FFF0
ENDCHAR
STARTCHAR dnblock
ENCODING 9604
SWIDTH 708 0
DWIDTH 12 0
BBX 12 10 0 -5
BITMAP
FFF0
FFF0
FFF0
FFF0
FFF0
FFF0
FFF0
FFF0
FFF0
FFF0
ENDCHAR
STARTCHAR block
ENCODING 9608
SWIDTH 708 0
DWIDTH 12 0
BBX 12 20 0 -5
BITMAP
FFF0
FFF0
FFF0
FFF0
FFF0
FFF0
FFF0
FFF0
FFF0
FFF0
FFF0
FFF0
FFF0
FFF0
FFF0
FFF0
FFF0
FFF0
FFF0
FFF0
ENDCHAR
STARTCHAR lfblock
ENCODING 9612
SWIDTH 708 0
DWIDTH 12 0
BBX 6 20 0 -5
BITMAP
FC
FC
FC
FC
FC
FC
FC
FC
FC
FC
FC
FC
FC
FC
FC
FC
FC
FC
FC
FC
ENDCHAR
STARTCHAR rtblock
ENCODING 9616
SWIDTH 708 0
DWIDTH 12 0
BBX 6 20 0 -5
BITMAP
FC
FC
FC
FC
FC
FC
FC
FC
FC
FC
FC
FC
FC
FC
FC
FC
FC
FC
FC
FC
ENDCHAR
STARTCHAR ltshade
ENCODING 9617
SWIDTH 708 0
DWIDTH 12 0
BBX 11 19 1 -4
BITMAP
8880
0000
2220
0000
8880
0000
2220
0000
8880
0000
2220
0000
8880
0000
2220
0000
8880
0000
2220
ENDCHAR
STARTCHAR shade
ENCODING 9618
SWIDTH 708 0
DWIDTH 12 0
BBX 12 19 0 -4
BITMAP
5550
0000
AAA0
0000
5550
0000
AAA0
0000
5550
0000
AAA0
0000
5550
0000
AAA0
0000
5550
0000
AAA0
ENDCHAR
STARTCHAR dkshade
ENCODING 9619
SWIDTH 729 0
DWIDTH 12 0
BBX 12 20 0 -5
BITMAP
5550
FFF0
AAA0
FFF0
5550
FFF0
AAA0
FFF0
5550
FFF0
AAA0
FFF0
5550
FFF0
AAA0
FFF0
5550
FFF0
AAA0
FFF0
ENDCHAR
STARTCHAR filledbox
ENCODING 9632
SWIDTH 604 0
DWIDTH 10 0
BBX 8 8 0 0
BITMAP
FF
FF
FF
FF
FF
FF
FF
FF
ENDCHAR
STARTCHAR H22073
ENCODING 9633
SWIDTH 604 0
DWIDTH 10 0
BBX 8 8 1 0
BITMAP
FF
81
81
81
81
81
81
FF
ENDCHAR
STARTCHAR H18543
ENCODING 9642
SWIDTH 354 0
DWIDTH 6 0
BBX 4 4 1 4
BITMAP
F0
F0
F0
F0
ENDCHAR
STARTCHAR H18551
ENCODING 9643
SWIDTH 354 0
DWIDTH 6 0
BBX 4 4 1 4
BITMAP
F0
90
90
F0
ENDCHAR
STARTCHAR filledrect
ENCODING 9644
SWIDTH 1000 0
DWIDTH 17 0
BBX 17 3 0 3
BITMAP
FFFF80
FFFF80
FFFF80
ENDCHAR
STARTCHAR triagup
ENCODING 9650
SWIDTH 989 0
DWIDTH 17 0
BBX 12 11 0 0
BITMAP
0600
0600
0F00
0F00
1F80
1F80
3FC0
3FC0
7FE0
7FE0
FFF0
ENDCHAR
STARTCHAR triagrt
ENCODING 9658
SWIDTH 989 0
DWIDTH 17 0
BBX 12 12 0 0
BITMAP
8000
E000
F800
FE00
FF80
FFE0
FFF0
FFC0
FF00
FC00
F000
C000
ENDCHAR
STARTCHAR triagdn
ENCODING 9660
SWIDTH 989 0
DWIDTH 17 0
BBX 12 12 0 0
BITMAP
FFF0
7FE0
7FE0
3FC0
3FC0
1F80
1F80
0F00
0F00
0600
0600
0400
ENDCHAR
STARTCHAR triaglf
ENCODING 9668
SWIDTH 989 0
DWIDTH 17 0
BBX 11 11 3 0
BITMAP
0060
01E0
07E0
1FE0
7FE0
FFE0
3FE0
0FE0
03E0
00E0
0020
ENDCHAR
STARTCHAR lozenge
ENCODING 9674
SWIDTH 494 0
DWIDTH 8 0
BBX 7 11 0 0
BITMAP
10
28
28
44
44
82
84
44
28
28
10
ENDCHAR
STARTCHAR circle
ENCODING 9675
SWIDTH 604 0
DWIDTH 10 0
BBX 7 7 0 1
BITMAP
7C
82
82
82
82
42
3C
ENDCHAR
STARTCHAR H18533
ENCODING 9679
SWIDTH 604 0
DWIDTH 10 0
BBX 8 7 1 1
BITMAP
3E
7E
7F
FF
7F
7E
1C
ENDCHAR
STARTCHAR invbullet
ENCODING 9688
SWIDTH 604 0
DWIDTH 10 0
BBX 8 8 0 0
BITMAP
FF
FF
E7
C3
C3
E7
FF
FF
ENDCHAR
STARTCHAR invcircle
ENCODING 9689
SWIDTH 604 0
DWIDTH 10 0
BBX 10 10 0 0
BITMAP
FFC0
FFC0
DDC0
FEC0
BFC0
BFC0
BFC0
DEC0
E3C0
FFC0
ENDCHAR
STARTCHAR openbullet
ENCODING 9702
SWIDTH 354 0
DWIDTH 6 0
BBX 4 4 1 4
BITMAP
60
90
90
F0
ENDCHAR
STARTCHAR smileface
ENCODING 9786
SWIDTH 1020 0
DWIDTH 17 0
BBX 11 11 3 -1
BITMAP
0600
3980
4040
4040
9120
8020
8020
5120
4E40
2080
1F00
ENDCHAR
STARTCHAR invsmileface
ENCODING 9787
SWIDTH 1052 0
DWIDTH 18 0
BBX 10 11 4 -1
BITMAP
0C00
3F00
7F80
FFC0
CCC0
FFC0
FFC0
FFC0
E380
7F80
1E00
ENDCHAR
STARTCHAR sun
ENCODING 9788
SWIDTH 916 0
DWIDTH 16 0
BBX 15 15 0 -2
BITMAP
0100
0104
2388
1C70
1010
1010
2010
E00E
1010
1010
0820
17D0
2108
0100
0100
ENDCHAR
STARTCHAR female
ENCODING 9792
SWIDTH 750 0
DWIDTH 13 0
BBX 9 17 2 -4
BITMAP
0800
7600
8100
8080
8080
8080
8100
4100
2200
1C00
0800
0800
0800
7E00
0800
0800
0800
ENDCHAR
STARTCHAR male
ENCODING 9794
SWIDTH 750 0
DWIDTH 13 0
BBX 11 15 1 -2
BITMAP
01C0
06C0
0940
0140
0220
0200
0C00
7200
8100
8100
8080
8080
8100
8100
7E00
ENDCHAR
STARTCHAR spade
ENCODING 9824
SWIDTH 531 0
DWIDTH 9 0
BBX 8 9 0 0
BITMAP
18
3C
7E
FF
FF
FF
76
18
3C
ENDCHAR
STARTCHAR club
ENCODING 9827
SWIDTH 656 0
DWIDTH 11 0
BBX 11 10 0 0
BITMAP
0E00
1F00
1F00
7FC0
7FE0
FFE0
7FC0
3580
0400
1F00
ENDCHAR
STARTCHAR heart
ENCODING 9829
SWIDTH 593 0
DWIDTH 10 0
BBX 9 10 0 0
BITMAP
7780
F780
FF80
FF80
7F00
3E00
1E00
1C00
0800
0800
ENDCHAR
STARTCHAR diamond
ENCODING 9830
SWIDTH 510 0
DWIDTH 9 0
BBX 7 10 0 0
BITMAP
10
18
3C
7C
FE
FE
7C
3C
18
10
ENDCHAR
STARTCHAR musicalnote
ENCODING 9834
SWIDTH 500 0
DWIDTH 9 0
BBX 8 11 0 0
BITMAP
0E
0F
09
09
08
08
08
28
78
F8
70
ENDCHAR
STARTCHAR musicalnotedbl
ENCODING 9835
SWIDTH 750 0
DWIDTH 13 0
BBX 10 13 1 -1
BITMAP
03C0
1FC0
1E40
1040
1040
1040
1040
1140
13C0
77C0
F3C0
F000
E000
ENDCHAR
STARTCHAR fi
ENCODING 64257
SWIDTH 500 0
DWIDTH 9 0
BBX 8 12 0 0
BITMAP
33
73
60
F3
F3
63
63
63
63
63
63
63
ENDCHAR
STARTCHAR fl
ENCODING 64258
SWIDTH 500 0
DWIDTH 9 0
BBX 8 12 0 0
BITMAP
33
73
63
F3
F3
63
63
63
63
63
63
63
ENDCHAR
STARTCHAR .notdef
ENCODING -1
SWIDTH 228 0
DWIDTH 4 0
BBX 3 11 0 0
BITMAP
E0
A0
A0
A0
A0
A0
A0
A0
A0
A0
E0
ENDCHAR
STARTCHAR .null
ENCODING -1
SWIDTH 0 0
DWIDTH 0 0
BBX 1 1 0 0
BITMAP
00
ENDCHAR
STARTCHAR nonmarkingreturn
ENCODING -1
SWIDTH 228 0
DWIDTH 4 0
BBX 1 1 0 0
BITMAP
00
ENDCHAR
STARTCHAR pi1
ENCODING -1
SWIDTH 548 0
DWIDTH 9 0
BBX 9 9 0 0
BITMAP
FF80
FF80
6300
6300
6300
6300
6300
6300
6300
ENDCHAR
STARTCHAR commaaccent
ENCODING -1
SWIDTH 272 0
DWIDTH 5 0
BBX 2 4 1 -5
BITMAP
C0
C0
40
80
ENDCHAR
STARTCHAR undercommaaccent
ENCODING -1
SWIDTH 272 0
DWIDTH 5 0
BBX 4 4 0 -4
BITMAP
70
10
10
E0
ENDCHAR
STARTCHAR foursuperior
ENCODING -1
SWIDTH 272 0
DWIDTH 5 0
BBX 5 6 0 6
BITMAP
10
30
70
D0
F8
10
ENDCHAR
STARTCHAR fivesuperior
ENCODING -1
SWIDTH 272 0
DWIDTH 5 0
BBX 4 6 0 6
BITMAP
70
80
E0
10
90
60
ENDCHAR
STARTCHAR sevensuperior
ENCODING -1
SWIDTH 272 0
DWIDTH 5 0
BBX 4 6 0 6
BITMAP
F0
10
20
40
40
40
ENDCHAR
STARTCHAR eightsuperior
ENCODING -1
SWIDTH 272 0
DWIDTH 5 0
BBX 4 6 0 6
BITMAP
60
90
60
90
90
60
ENDCHAR
STARTCHAR glyph663
ENCODING -1
SWIDTH 228 0
DWIDTH 4 0
BBX 3 15 1 0
BITMAP
60
C0
00
C0
C0
00
C0
C0
C0
C0
C0
C0
C0
C0
C0
ENDCHAR
ENDFONT
